<svg xmlns="http://www.w3.org/2000/svg" viewBox="0 0 1600 900" preserveAspectRatio="xMidYMax slice"><defs><linearGradient id="l1" x1="0" y1="0" x2="0" y2="1"><stop offset="0" stop-color="#F3F0FB" stop-opacity="1"/><stop offset="1" stop-color="#E4DEF4" stop-opacity="1"/></linearGradient><linearGradient id="l2" x1="0" y1="0" x2="0" y2="1"><stop offset="0" stop-color="#D8D1EE" stop-opacity="1"/><stop offset="1" stop-color="#CFC7EA" stop-opacity="1"/></linearGradient><linearGradient id="l3" x1="0" y1="0" x2="0" y2="1"><stop offset="0" stop-color="#0A1020" stop-opacity="0.12"/><stop offset="1" stop-color="#0A1020" stop-opacity="0"/></linearGradient><radialGradient id="r4" cx="0.5" cy="0.5" r="0.5"><stop offset="0" stop-color="#FFFFFF" stop-opacity="0.6"/><stop offset="1" stop-color="#FFFFFF" stop-opacity="0"/></radialGradient><radialGradient id="r5" cx="0.5" cy="0.5" r="0.5"><stop offset="0" stop-color="#FFFFFF" stop-opacity="0.6"/><stop offset="1" stop-color="#FFFFFF" stop-opacity="0"/></radialGradient><radialGradient id="r6" cx="0.5" cy="0.5" r="0.5"><stop offset="0" stop-color="#FFFFFF" stop-opacity="0.6"/><stop offset="1" stop-color="#FFFFFF" stop-opacity="0"/></radialGradient><linearGradient id="l7" x1="0" y1="0" x2="0" y2="1"><stop offset="0" stop-color="#D2C9EE" stop-opacity="1"/><stop offset="1" stop-color="#C6BCE8" stop-opacity="1"/></linearGradient><linearGradient id="l8" x1="0" y1="0" x2="0" y2="1"><stop offset="0" stop-color="#BFE3F7" stop-opacity="1"/><stop offset="1" stop-color="#F2F8FC" stop-opacity="1"/></linearGradient><linearGradient id="l9" x1="0" y1="0" x2="0" y2="1"><stop offset="0" stop-color="#FFF6DE" stop-opacity="0.32"/><stop offset="1" stop-color="#FFF6DE" stop-opacity="0"/></linearGradient><linearGradient id="l10" x1="0" y1="0" x2="0" y2="1"><stop offset="0" stop-color="#F1EEF8" stop-opacity="1"/><stop offset="1" stop-color="#DED7EF" stop-opacity="1"/></linearGradient><linearGradient id="l11" x1="0" y1="0" x2="0" y2="1"><stop offset="0" stop-color="#FFFFFF" stop-opacity="0.45"/><stop offset="1" stop-color="#FFFFFF" stop-opacity="0"/></linearGradient><linearGradient id="l12" x1="0" y1="0" x2="0" y2="1"><stop offset="0" stop-color="#0A1020" stop-opacity="0.16"/><stop offset="1" stop-color="#0A1020" stop-opacity="0"/></linearGradient><radialGradient id="r13" cx="0.5" cy="0.5" r="0.5"><stop offset="0" stop-color="#0A1020" stop-opacity="0.2"/><stop offset="1" stop-color="#0A1020" stop-opacity="0"/></radialGradient><radialGradient id="r14" cx="0.5" cy="0.5" r="0.5"><stop offset="0" stop-color="#0A1020" stop-opacity="0.2"/><stop offset="1" stop-color="#0A1020" stop-opacity="0"/></radialGradient><linearGradient id="l15" x1="0" y1="0" x2="0" y2="1"><stop offset="0" stop-color="#6B6392" stop-opacity="1"/><stop offset="1" stop-color="#4E4778" stop-opacity="1"/></linearGradient><radialGradient id="r16" cx="0.5" cy="0.5" r="0.5"><stop offset="0" stop-color="#FFFFFF" stop-opacity="0.65"/><stop offset="0.6" stop-color="#FFFFFF" stop-opacity="0.22749999999999998"/><stop offset="1" stop-color="#FFFFFF" stop-opacity="0"/></radialGradient><radialGradient id="r17" cx="0.5" cy="0.5" r="0.5"><stop offset="0" stop-color="#FFFFFF" stop-opacity="0.3"/><stop offset="1" stop-color="#FFFFFF" stop-opacity="0"/></radialGradient><filter id="b18" x="-20%" y="-20%" width="140%" height="140%"><feGaussianBlur stdDeviation="3"/></filter><linearGradient id="l19" x1="0" y1="0" x2="1" y2="1"><stop offset="0" stop-color="#6FC79B" stop-opacity="1"/><stop offset="1" stop-color="#2F9468" stop-opacity="1"/></linearGradient><linearGradient id="l20" x1="0" y1="0" x2="1" y2="0"><stop offset="0" stop-color="#6D5BD0" stop-opacity="1"/><stop offset="1" stop-color="#5443B5" stop-opacity="1"/></linearGradient><radialGradient id="r21" cx="0.5" cy="0.5" r="0.5"><stop offset="0" stop-color="#0A1020" stop-opacity="0.25"/><stop offset="1" stop-color="#0A1020" stop-opacity="0"/></radialGradient><filter id="b22" x="-20%" y="-20%" width="140%" height="140%"><feGaussianBlur stdDeviation="2.5"/></filter><radialGradient id="r23" cx="0.5" cy="0.46" r="0.78"><stop offset="0" stop-color="#000" stop-opacity="0"/><stop offset="0.62" stop-color="#000" stop-opacity="0"/><stop offset="1" stop-color="#0A1020" stop-opacity="0.2"/></radialGradient></defs><rect x="0.0" y="0.0" width="1600.0" height="900.0" rx="0" fill="#F3F0FB"/><rect x="0.0" y="0.0" width="1600.0" height="600.0" rx="0" fill="url(#l1)"/><rect x="0.0" y="0.0" width="1600.0" height="70.0" rx="0" fill="url(#l2)"/><rect x="0.0" y="70.0" width="1600.0" height="14.0" rx="0" fill="url(#l3)"/><rect x="-44.0" y="80.0" width="84.0" height="32.0" rx="3" fill="#D9D1F0" opacity="0.55"/><rect x="44.0" y="80.0" width="84.0" height="32.0" rx="3" fill="#D9D1F0" opacity="0.55"/><rect x="132.0" y="80.0" width="84.0" height="32.0" rx="3" fill="#D9D1F0" opacity="0.55"/><rect x="220.0" y="80.0" width="84.0" height="32.0" rx="3" fill="#D9D1F0" opacity="0.55"/><rect x="308.0" y="80.0" width="84.0" height="32.0" rx="3" fill="#D9D1F0" opacity="0.55"/><rect x="396.0" y="80.0" width="84.0" height="32.0" rx="3" fill="#D9D1F0" opacity="0.55"/><rect x="484.0" y="80.0" width="84.0" height="32.0" rx="3" fill="#D9D1F0" opacity="0.55"/><rect x="572.0" y="80.0" width="84.0" height="32.0" rx="3" fill="#D9D1F0" opacity="0.55"/><rect x="660.0" y="80.0" width="84.0" height="32.0" rx="3" fill="#D9D1F0" opacity="0.55"/><rect x="748.0" y="80.0" width="84.0" height="32.0" rx="3" fill="#D9D1F0" opacity="0.55"/><rect x="836.0" y="80.0" width="84.0" height="32.0" rx="3" fill="#D9D1F0" opacity="0.55"/><rect x="924.0" y="80.0" width="84.0" height="32.0" rx="3" fill="#D9D1F0" opacity="0.55"/><rect x="1012.0" y="80.0" width="84.0" height="32.0" rx="3" fill="#D9D1F0" opacity="0.55"/><rect x="1100.0" y="80.0" width="84.0" height="32.0" rx="3" fill="#D9D1F0" opacity="0.55"/><rect x="1188.0" y="80.0" width="84.0" height="32.0" rx="3" fill="#D9D1F0" opacity="0.55"/><rect x="1276.0" y="80.0" width="84.0" height="32.0" rx="3" fill="#D9D1F0" opacity="0.55"/><rect x="1364.0" y="80.0" width="84.0" height="32.0" rx="3" fill="#D9D1F0" opacity="0.55"/><rect x="1452.0" y="80.0" width="84.0" height="32.0" rx="3" fill="#D9D1F0" opacity="0.55"/><rect x="1540.0" y="80.0" width="84.0" height="32.0" rx="3" fill="#D9D1F0" opacity="0.55"/><rect x="0.0" y="118.0" width="84.0" height="32.0" rx="3" fill="#D9D1F0" opacity="0.55"/><rect x="88.0" y="118.0" width="84.0" height="32.0" rx="3" fill="#D9D1F0" opacity="0.55"/><rect x="176.0" y="118.0" width="84.0" height="32.0" rx="3" fill="#D9D1F0" opacity="0.55"/><rect x="264.0" y="118.0" width="84.0" height="32.0" rx="3" fill="#D9D1F0" opacity="0.55"/><rect x="352.0" y="118.0" width="84.0" height="32.0" rx="3" fill="#D9D1F0" opacity="0.55"/><rect x="440.0" y="118.0" width="84.0" height="32.0" rx="3" fill="#D9D1F0" opacity="0.55"/><rect x="528.0" y="118.0" width="84.0" height="32.0" rx="3" fill="#D9D1F0" opacity="0.55"/><rect x="616.0" y="118.0" width="84.0" height="32.0" rx="3" fill="#D9D1F0" opacity="0.55"/><rect x="704.0" y="118.0" width="84.0" height="32.0" rx="3" fill="#D9D1F0" opacity="0.55"/><rect x="792.0" y="118.0" width="84.0" height="32.0" rx="3" fill="#D9D1F0" opacity="0.55"/><rect x="880.0" y="118.0" width="84.0" height="32.0" rx="3" fill="#D9D1F0" opacity="0.55"/><rect x="968.0" y="118.0" width="84.0" height="32.0" rx="3" fill="#D9D1F0" opacity="0.55"/><rect x="1056.0" y="118.0" width="84.0" height="32.0" rx="3" fill="#D9D1F0" opacity="0.55"/><rect x="1144.0" y="118.0" width="84.0" height="32.0" rx="3" fill="#D9D1F0" opacity="0.55"/><rect x="1232.0" y="118.0" width="84.0" height="32.0" rx="3" fill="#D9D1F0" opacity="0.55"/><rect x="1320.0" y="118.0" width="84.0" height="32.0" rx="3" fill="#D9D1F0" opacity="0.55"/><rect x="1408.0" y="118.0" width="84.0" height="32.0" rx="3" fill="#D9D1F0" opacity="0.55"/><rect x="1496.0" y="118.0" width="84.0" height="32.0" rx="3" fill="#D9D1F0" opacity="0.55"/><rect x="1584.0" y="118.0" width="84.0" height="32.0" rx="3" fill="#D9D1F0" opacity="0.55"/><rect x="-44.0" y="156.0" width="84.0" height="32.0" rx="3" fill="#D9D1F0" opacity="0.55"/><rect x="44.0" y="156.0" width="84.0" height="32.0" rx="3" fill="#D9D1F0" opacity="0.55"/><rect x="132.0" y="156.0" width="84.0" height="32.0" rx="3" fill="#D9D1F0" opacity="0.55"/><rect x="220.0" y="156.0" width="84.0" height="32.0" rx="3" fill="#D9D1F0" opacity="0.55"/><rect x="308.0" y="156.0" width="84.0" height="32.0" rx="3" fill="#D9D1F0" opacity="0.55"/><rect x="396.0" y="156.0" width="84.0" height="32.0" rx="3" fill="#D9D1F0" opacity="0.55"/><rect x="484.0" y="156.0" width="84.0" height="32.0" rx="3" fill="#D9D1F0" opacity="0.55"/><rect x="572.0" y="156.0" width="84.0" height="32.0" rx="3" fill="#D9D1F0" opacity="0.55"/><rect x="660.0" y="156.0" width="84.0" height="32.0" rx="3" fill="#D9D1F0" opacity="0.55"/><rect x="748.0" y="156.0" width="84.0" height="32.0" rx="3" fill="#D9D1F0" opacity="0.55"/><rect x="836.0" y="156.0" width="84.0" height="32.0" rx="3" fill="#D9D1F0" opacity="0.55"/><rect x="924.0" y="156.0" width="84.0" height="32.0" rx="3" fill="#D9D1F0" opacity="0.55"/><rect x="1012.0" y="156.0" width="84.0" height="32.0" rx="3" fill="#D9D1F0" opacity="0.55"/><rect x="1100.0" y="156.0" width="84.0" height="32.0" rx="3" fill="#D9D1F0" opacity="0.55"/><rect x="1188.0" y="156.0" width="84.0" height="32.0" rx="3" fill="#D9D1F0" opacity="0.55"/><rect x="1276.0" y="156.0" width="84.0" height="32.0" rx="3" fill="#D9D1F0" opacity="0.55"/><rect x="1364.0" y="156.0" width="84.0" height="32.0" rx="3" fill="#D9D1F0" opacity="0.55"/><rect x="1452.0" y="156.0" width="84.0" height="32.0" rx="3" fill="#D9D1F0" opacity="0.55"/><rect x="1540.0" y="156.0" width="84.0" height="32.0" rx="3" fill="#D9D1F0" opacity="0.55"/><rect x="0.0" y="194.0" width="84.0" height="32.0" rx="3" fill="#D9D1F0" opacity="0.55"/><rect x="88.0" y="194.0" width="84.0" height="32.0" rx="3" fill="#D9D1F0" opacity="0.55"/><rect x="176.0" y="194.0" width="84.0" height="32.0" rx="3" fill="#D9D1F0" opacity="0.55"/><rect x="264.0" y="194.0" width="84.0" height="32.0" rx="3" fill="#D9D1F0" opacity="0.55"/><rect x="352.0" y="194.0" width="84.0" height="32.0" rx="3" fill="#D9D1F0" opacity="0.55"/><rect x="440.0" y="194.0" width="84.0" height="32.0" rx="3" fill="#D9D1F0" opacity="0.55"/><rect x="528.0" y="194.0" width="84.0" height="32.0" rx="3" fill="#D9D1F0" opacity="0.55"/><rect x="616.0" y="194.0" width="84.0" height="32.0" rx="3" fill="#D9D1F0" opacity="0.55"/><rect x="704.0" y="194.0" width="84.0" height="32.0" rx="3" fill="#D9D1F0" opacity="0.55"/><rect x="792.0" y="194.0" width="84.0" height="32.0" rx="3" fill="#D9D1F0" opacity="0.55"/><rect x="880.0" y="194.0" width="84.0" height="32.0" rx="3" fill="#D9D1F0" opacity="0.55"/><rect x="968.0" y="194.0" width="84.0" height="32.0" rx="3" fill="#D9D1F0" opacity="0.55"/><rect x="1056.0" y="194.0" width="84.0" height="32.0" rx="3" fill="#D9D1F0" opacity="0.55"/><rect x="1144.0" y="194.0" width="84.0" height="32.0" rx="3" fill="#D9D1F0" opacity="0.55"/><rect x="1232.0" y="194.0" width="84.0" height="32.0" rx="3" fill="#D9D1F0" opacity="0.55"/><rect x="1320.0" y="194.0" width="84.0" height="32.0" rx="3" fill="#D9D1F0" opacity="0.55"/><rect x="1408.0" y="194.0" width="84.0" height="32.0" rx="3" fill="#D9D1F0" opacity="0.55"/><rect x="1496.0" y="194.0" width="84.0" height="32.0" rx="3" fill="#D9D1F0" opacity="0.55"/><rect x="1584.0" y="194.0" width="84.0" height="32.0" rx="3" fill="#D9D1F0" opacity="0.55"/><rect x="-44.0" y="232.0" width="84.0" height="32.0" rx="3" fill="#D9D1F0" opacity="0.55"/><rect x="44.0" y="232.0" width="84.0" height="32.0" rx="3" fill="#D9D1F0" opacity="0.55"/><rect x="132.0" y="232.0" width="84.0" height="32.0" rx="3" fill="#D9D1F0" opacity="0.55"/><rect x="220.0" y="232.0" width="84.0" height="32.0" rx="3" fill="#D9D1F0" opacity="0.55"/><rect x="308.0" y="232.0" width="84.0" height="32.0" rx="3" fill="#D9D1F0" opacity="0.55"/><rect x="396.0" y="232.0" width="84.0" height="32.0" rx="3" fill="#D9D1F0" opacity="0.55"/><rect x="484.0" y="232.0" width="84.0" height="32.0" rx="3" fill="#D9D1F0" opacity="0.55"/><rect x="572.0" y="232.0" width="84.0" height="32.0" rx="3" fill="#D9D1F0" opacity="0.55"/><rect x="660.0" y="232.0" width="84.0" height="32.0" rx="3" fill="#D9D1F0" opacity="0.55"/><rect x="748.0" y="232.0" width="84.0" height="32.0" rx="3" fill="#D9D1F0" opacity="0.55"/><rect x="836.0" y="232.0" width="84.0" height="32.0" rx="3" fill="#D9D1F0" opacity="0.55"/><rect x="924.0" y="232.0" width="84.0" height="32.0" rx="3" fill="#D9D1F0" opacity="0.55"/><rect x="1012.0" y="232.0" width="84.0" height="32.0" rx="3" fill="#D9D1F0" opacity="0.55"/><rect x="1100.0" y="232.0" width="84.0" height="32.0" rx="3" fill="#D9D1F0" opacity="0.55"/><rect x="1188.0" y="232.0" width="84.0" height="32.0" rx="3" fill="#D9D1F0" opacity="0.55"/><rect x="1276.0" y="232.0" width="84.0" height="32.0" rx="3" fill="#D9D1F0" opacity="0.55"/><rect x="1364.0" y="232.0" width="84.0" height="32.0" rx="3" fill="#D9D1F0" opacity="0.55"/><rect x="1452.0" y="232.0" width="84.0" height="32.0" rx="3" fill="#D9D1F0" opacity="0.55"/><rect x="1540.0" y="232.0" width="84.0" height="32.0" rx="3" fill="#D9D1F0" opacity="0.55"/><rect x="0.0" y="270.0" width="84.0" height="32.0" rx="3" fill="#D9D1F0" opacity="0.55"/><rect x="88.0" y="270.0" width="84.0" height="32.0" rx="3" fill="#D9D1F0" opacity="0.55"/><rect x="176.0" y="270.0" width="84.0" height="32.0" rx="3" fill="#D9D1F0" opacity="0.55"/><rect x="264.0" y="270.0" width="84.0" height="32.0" rx="3" fill="#D9D1F0" opacity="0.55"/><rect x="352.0" y="270.0" width="84.0" height="32.0" rx="3" fill="#D9D1F0" opacity="0.55"/><rect x="440.0" y="270.0" width="84.0" height="32.0" rx="3" fill="#D9D1F0" opacity="0.55"/><rect x="528.0" y="270.0" width="84.0" height="32.0" rx="3" fill="#D9D1F0" opacity="0.55"/><rect x="616.0" y="270.0" width="84.0" height="32.0" rx="3" fill="#D9D1F0" opacity="0.55"/><rect x="704.0" y="270.0" width="84.0" height="32.0" rx="3" fill="#D9D1F0" opacity="0.55"/><rect x="792.0" y="270.0" width="84.0" height="32.0" rx="3" fill="#D9D1F0" opacity="0.55"/><rect x="880.0" y="270.0" width="84.0" height="32.0" rx="3" fill="#D9D1F0" opacity="0.55"/><rect x="968.0" y="270.0" width="84.0" height="32.0" rx="3" fill="#D9D1F0" opacity="0.55"/><rect x="1056.0" y="270.0" width="84.0" height="32.0" rx="3" fill="#D9D1F0" opacity="0.55"/><rect x="1144.0" y="270.0" width="84.0" height="32.0" rx="3" fill="#D9D1F0" opacity="0.55"/><rect x="1232.0" y="270.0" width="84.0" height="32.0" rx="3" fill="#D9D1F0" opacity="0.55"/><rect x="1320.0" y="270.0" width="84.0" height="32.0" rx="3" fill="#D9D1F0" opacity="0.55"/><rect x="1408.0" y="270.0" width="84.0" height="32.0" rx="3" fill="#D9D1F0" opacity="0.55"/><rect x="1496.0" y="270.0" width="84.0" height="32.0" rx="3" fill="#D9D1F0" opacity="0.55"/><rect x="1584.0" y="270.0" width="84.0" height="32.0" rx="3" fill="#D9D1F0" opacity="0.55"/><rect x="-44.0" y="308.0" width="84.0" height="32.0" rx="3" fill="#D9D1F0" opacity="0.55"/><rect x="44.0" y="308.0" width="84.0" height="32.0" rx="3" fill="#D9D1F0" opacity="0.55"/><rect x="132.0" y="308.0" width="84.0" height="32.0" rx="3" fill="#D9D1F0" opacity="0.55"/><rect x="220.0" y="308.0" width="84.0" height="32.0" rx="3" fill="#D9D1F0" opacity="0.55"/><rect x="308.0" y="308.0" width="84.0" height="32.0" rx="3" fill="#D9D1F0" opacity="0.55"/><rect x="396.0" y="308.0" width="84.0" height="32.0" rx="3" fill="#D9D1F0" opacity="0.55"/><rect x="484.0" y="308.0" width="84.0" height="32.0" rx="3" fill="#D9D1F0" opacity="0.55"/><rect x="572.0" y="308.0" width="84.0" height="32.0" rx="3" fill="#D9D1F0" opacity="0.55"/><rect x="660.0" y="308.0" width="84.0" height="32.0" rx="3" fill="#D9D1F0" opacity="0.55"/><rect x="748.0" y="308.0" width="84.0" height="32.0" rx="3" fill="#D9D1F0" opacity="0.55"/><rect x="836.0" y="308.0" width="84.0" height="32.0" rx="3" fill="#D9D1F0" opacity="0.55"/><rect x="924.0" y="308.0" width="84.0" height="32.0" rx="3" fill="#D9D1F0" opacity="0.55"/><rect x="1012.0" y="308.0" width="84.0" height="32.0" rx="3" fill="#D9D1F0" opacity="0.55"/><rect x="1100.0" y="308.0" width="84.0" height="32.0" rx="3" fill="#D9D1F0" opacity="0.55"/><rect x="1188.0" y="308.0" width="84.0" height="32.0" rx="3" fill="#D9D1F0" opacity="0.55"/><rect x="1276.0" y="308.0" width="84.0" height="32.0" rx="3" fill="#D9D1F0" opacity="0.55"/><rect x="1364.0" y="308.0" width="84.0" height="32.0" rx="3" fill="#D9D1F0" opacity="0.55"/><rect x="1452.0" y="308.0" width="84.0" height="32.0" rx="3" fill="#D9D1F0" opacity="0.55"/><rect x="1540.0" y="308.0" width="84.0" height="32.0" rx="3" fill="#D9D1F0" opacity="0.55"/><rect x="0.0" y="346.0" width="84.0" height="32.0" rx="3" fill="#D9D1F0" opacity="0.55"/><rect x="88.0" y="346.0" width="84.0" height="32.0" rx="3" fill="#D9D1F0" opacity="0.55"/><rect x="176.0" y="346.0" width="84.0" height="32.0" rx="3" fill="#D9D1F0" opacity="0.55"/><rect x="264.0" y="346.0" width="84.0" height="32.0" rx="3" fill="#D9D1F0" opacity="0.55"/><rect x="352.0" y="346.0" width="84.0" height="32.0" rx="3" fill="#D9D1F0" opacity="0.55"/><rect x="440.0" y="346.0" width="84.0" height="32.0" rx="3" fill="#D9D1F0" opacity="0.55"/><rect x="528.0" y="346.0" width="84.0" height="32.0" rx="3" fill="#D9D1F0" opacity="0.55"/><rect x="616.0" y="346.0" width="84.0" height="32.0" rx="3" fill="#D9D1F0" opacity="0.55"/><rect x="704.0" y="346.0" width="84.0" height="32.0" rx="3" fill="#D9D1F0" opacity="0.55"/><rect x="792.0" y="346.0" width="84.0" height="32.0" rx="3" fill="#D9D1F0" opacity="0.55"/><rect x="880.0" y="346.0" width="84.0" height="32.0" rx="3" fill="#D9D1F0" opacity="0.55"/><rect x="968.0" y="346.0" width="84.0" height="32.0" rx="3" fill="#D9D1F0" opacity="0.55"/><rect x="1056.0" y="346.0" width="84.0" height="32.0" rx="3" fill="#D9D1F0" opacity="0.55"/><rect x="1144.0" y="346.0" width="84.0" height="32.0" rx="3" fill="#D9D1F0" opacity="0.55"/><rect x="1232.0" y="346.0" width="84.0" height="32.0" rx="3" fill="#D9D1F0" opacity="0.55"/><rect x="1320.0" y="346.0" width="84.0" height="32.0" rx="3" fill="#D9D1F0" opacity="0.55"/><rect x="1408.0" y="346.0" width="84.0" height="32.0" rx="3" fill="#D9D1F0" opacity="0.55"/><rect x="1496.0" y="346.0" width="84.0" height="32.0" rx="3" fill="#D9D1F0" opacity="0.55"/><rect x="1584.0" y="346.0" width="84.0" height="32.0" rx="3" fill="#D9D1F0" opacity="0.55"/><rect x="-44.0" y="384.0" width="84.0" height="32.0" rx="3" fill="#D9D1F0" opacity="0.55"/><rect x="44.0" y="384.0" width="84.0" height="32.0" rx="3" fill="#D9D1F0" opacity="0.55"/><rect x="132.0" y="384.0" width="84.0" height="32.0" rx="3" fill="#D9D1F0" opacity="0.55"/><rect x="220.0" y="384.0" width="84.0" height="32.0" rx="3" fill="#D9D1F0" opacity="0.55"/><rect x="308.0" y="384.0" width="84.0" height="32.0" rx="3" fill="#D9D1F0" opacity="0.55"/><rect x="396.0" y="384.0" width="84.0" height="32.0" rx="3" fill="#D9D1F0" opacity="0.55"/><rect x="484.0" y="384.0" width="84.0" height="32.0" rx="3" fill="#D9D1F0" opacity="0.55"/><rect x="572.0" y="384.0" width="84.0" height="32.0" rx="3" fill="#D9D1F0" opacity="0.55"/><rect x="660.0" y="384.0" width="84.0" height="32.0" rx="3" fill="#D9D1F0" opacity="0.55"/><rect x="748.0" y="384.0" width="84.0" height="32.0" rx="3" fill="#D9D1F0" opacity="0.55"/><rect x="836.0" y="384.0" width="84.0" height="32.0" rx="3" fill="#D9D1F0" opacity="0.55"/><rect x="924.0" y="384.0" width="84.0" height="32.0" rx="3" fill="#D9D1F0" opacity="0.55"/><rect x="1012.0" y="384.0" width="84.0" height="32.0" rx="3" fill="#D9D1F0" opacity="0.55"/><rect x="1100.0" y="384.0" width="84.0" height="32.0" rx="3" fill="#D9D1F0" opacity="0.55"/><rect x="1188.0" y="384.0" width="84.0" height="32.0" rx="3" fill="#D9D1F0" opacity="0.55"/><rect x="1276.0" y="384.0" width="84.0" height="32.0" rx="3" fill="#D9D1F0" opacity="0.55"/><rect x="1364.0" y="384.0" width="84.0" height="32.0" rx="3" fill="#D9D1F0" opacity="0.55"/><rect x="1452.0" y="384.0" width="84.0" height="32.0" rx="3" fill="#D9D1F0" opacity="0.55"/><rect x="1540.0" y="384.0" width="84.0" height="32.0" rx="3" fill="#D9D1F0" opacity="0.55"/><rect x="0.0" y="422.0" width="84.0" height="32.0" rx="3" fill="#D9D1F0" opacity="0.55"/><rect x="88.0" y="422.0" width="84.0" height="32.0" rx="3" fill="#D9D1F0" opacity="0.55"/><rect x="176.0" y="422.0" width="84.0" height="32.0" rx="3" fill="#D9D1F0" opacity="0.55"/><rect x="264.0" y="422.0" width="84.0" height="32.0" rx="3" fill="#D9D1F0" opacity="0.55"/><rect x="352.0" y="422.0" width="84.0" height="32.0" rx="3" fill="#D9D1F0" opacity="0.55"/><rect x="440.0" y="422.0" width="84.0" height="32.0" rx="3" fill="#D9D1F0" opacity="0.55"/><rect x="528.0" y="422.0" width="84.0" height="32.0" rx="3" fill="#D9D1F0" opacity="0.55"/><rect x="616.0" y="422.0" width="84.0" height="32.0" rx="3" fill="#D9D1F0" opacity="0.55"/><rect x="704.0" y="422.0" width="84.0" height="32.0" rx="3" fill="#D9D1F0" opacity="0.55"/><rect x="792.0" y="422.0" width="84.0" height="32.0" rx="3" fill="#D9D1F0" opacity="0.55"/><rect x="880.0" y="422.0" width="84.0" height="32.0" rx="3" fill="#D9D1F0" opacity="0.55"/><rect x="968.0" y="422.0" width="84.0" height="32.0" rx="3" fill="#D9D1F0" opacity="0.55"/><rect x="1056.0" y="422.0" width="84.0" height="32.0" rx="3" fill="#D9D1F0" opacity="0.55"/><rect x="1144.0" y="422.0" width="84.0" height="32.0" rx="3" fill="#D9D1F0" opacity="0.55"/><rect x="1232.0" y="422.0" width="84.0" height="32.0" rx="3" fill="#D9D1F0" opacity="0.55"/><rect x="1320.0" y="422.0" width="84.0" height="32.0" rx="3" fill="#D9D1F0" opacity="0.55"/><rect x="1408.0" y="422.0" width="84.0" height="32.0" rx="3" fill="#D9D1F0" opacity="0.55"/><rect x="1496.0" y="422.0" width="84.0" height="32.0" rx="3" fill="#D9D1F0" opacity="0.55"/><rect x="1584.0" y="422.0" width="84.0" height="32.0" rx="3" fill="#D9D1F0" opacity="0.55"/><rect x="-44.0" y="460.0" width="84.0" height="32.0" rx="3" fill="#D9D1F0" opacity="0.55"/><rect x="44.0" y="460.0" width="84.0" height="32.0" rx="3" fill="#D9D1F0" opacity="0.55"/><rect x="132.0" y="460.0" width="84.0" height="32.0" rx="3" fill="#D9D1F0" opacity="0.55"/><rect x="220.0" y="460.0" width="84.0" height="32.0" rx="3" fill="#D9D1F0" opacity="0.55"/><rect x="308.0" y="460.0" width="84.0" height="32.0" rx="3" fill="#D9D1F0" opacity="0.55"/><rect x="396.0" y="460.0" width="84.0" height="32.0" rx="3" fill="#D9D1F0" opacity="0.55"/><rect x="484.0" y="460.0" width="84.0" height="32.0" rx="3" fill="#D9D1F0" opacity="0.55"/><rect x="572.0" y="460.0" width="84.0" height="32.0" rx="3" fill="#D9D1F0" opacity="0.55"/><rect x="660.0" y="460.0" width="84.0" height="32.0" rx="3" fill="#D9D1F0" opacity="0.55"/><rect x="748.0" y="460.0" width="84.0" height="32.0" rx="3" fill="#D9D1F0" opacity="0.55"/><rect x="836.0" y="460.0" width="84.0" height="32.0" rx="3" fill="#D9D1F0" opacity="0.55"/><rect x="924.0" y="460.0" width="84.0" height="32.0" rx="3" fill="#D9D1F0" opacity="0.55"/><rect x="1012.0" y="460.0" width="84.0" height="32.0" rx="3" fill="#D9D1F0" opacity="0.55"/><rect x="1100.0" y="460.0" width="84.0" height="32.0" rx="3" fill="#D9D1F0" opacity="0.55"/><rect x="1188.0" y="460.0" width="84.0" height="32.0" rx="3" fill="#D9D1F0" opacity="0.55"/><rect x="1276.0" y="460.0" width="84.0" height="32.0" rx="3" fill="#D9D1F0" opacity="0.55"/><rect x="1364.0" y="460.0" width="84.0" height="32.0" rx="3" fill="#D9D1F0" opacity="0.55"/><rect x="1452.0" y="460.0" width="84.0" height="32.0" rx="3" fill="#D9D1F0" opacity="0.55"/><rect x="1540.0" y="460.0" width="84.0" height="32.0" rx="3" fill="#D9D1F0" opacity="0.55"/><rect x="0.0" y="498.0" width="84.0" height="32.0" rx="3" fill="#D9D1F0" opacity="0.55"/><rect x="88.0" y="498.0" width="84.0" height="32.0" rx="3" fill="#D9D1F0" opacity="0.55"/><rect x="176.0" y="498.0" width="84.0" height="32.0" rx="3" fill="#D9D1F0" opacity="0.55"/><rect x="264.0" y="498.0" width="84.0" height="32.0" rx="3" fill="#D9D1F0" opacity="0.55"/><rect x="352.0" y="498.0" width="84.0" height="32.0" rx="3" fill="#D9D1F0" opacity="0.55"/><rect x="440.0" y="498.0" width="84.0" height="32.0" rx="3" fill="#D9D1F0" opacity="0.55"/><rect x="528.0" y="498.0" width="84.0" height="32.0" rx="3" fill="#D9D1F0" opacity="0.55"/><rect x="616.0" y="498.0" width="84.0" height="32.0" rx="3" fill="#D9D1F0" opacity="0.55"/><rect x="704.0" y="498.0" width="84.0" height="32.0" rx="3" fill="#D9D1F0" opacity="0.55"/><rect x="792.0" y="498.0" width="84.0" height="32.0" rx="3" fill="#D9D1F0" opacity="0.55"/><rect x="880.0" y="498.0" width="84.0" height="32.0" rx="3" fill="#D9D1F0" opacity="0.55"/><rect x="968.0" y="498.0" width="84.0" height="32.0" rx="3" fill="#D9D1F0" opacity="0.55"/><rect x="1056.0" y="498.0" width="84.0" height="32.0" rx="3" fill="#D9D1F0" opacity="0.55"/><rect x="1144.0" y="498.0" width="84.0" height="32.0" rx="3" fill="#D9D1F0" opacity="0.55"/><rect x="1232.0" y="498.0" width="84.0" height="32.0" rx="3" fill="#D9D1F0" opacity="0.55"/><rect x="1320.0" y="498.0" width="84.0" height="32.0" rx="3" fill="#D9D1F0" opacity="0.55"/><rect x="1408.0" y="498.0" width="84.0" height="32.0" rx="3" fill="#D9D1F0" opacity="0.55"/><rect x="1496.0" y="498.0" width="84.0" height="32.0" rx="3" fill="#D9D1F0" opacity="0.55"/><rect x="1584.0" y="498.0" width="84.0" height="32.0" rx="3" fill="#D9D1F0" opacity="0.55"/><rect x="-44.0" y="536.0" width="84.0" height="32.0" rx="3" fill="#D9D1F0" opacity="0.55"/><rect x="44.0" y="536.0" width="84.0" height="32.0" rx="3" fill="#D9D1F0" opacity="0.55"/><rect x="132.0" y="536.0" width="84.0" height="32.0" rx="3" fill="#D9D1F0" opacity="0.55"/><rect x="220.0" y="536.0" width="84.0" height="32.0" rx="3" fill="#D9D1F0" opacity="0.55"/><rect x="308.0" y="536.0" width="84.0" height="32.0" rx="3" fill="#D9D1F0" opacity="0.55"/><rect x="396.0" y="536.0" width="84.0" height="32.0" rx="3" fill="#D9D1F0" opacity="0.55"/><rect x="484.0" y="536.0" width="84.0" height="32.0" rx="3" fill="#D9D1F0" opacity="0.55"/><rect x="572.0" y="536.0" width="84.0" height="32.0" rx="3" fill="#D9D1F0" opacity="0.55"/><rect x="660.0" y="536.0" width="84.0" height="32.0" rx="3" fill="#D9D1F0" opacity="0.55"/><rect x="748.0" y="536.0" width="84.0" height="32.0" rx="3" fill="#D9D1F0" opacity="0.55"/><rect x="836.0" y="536.0" width="84.0" height="32.0" rx="3" fill="#D9D1F0" opacity="0.55"/><rect x="924.0" y="536.0" width="84.0" height="32.0" rx="3" fill="#D9D1F0" opacity="0.55"/><rect x="1012.0" y="536.0" width="84.0" height="32.0" rx="3" fill="#D9D1F0" opacity="0.55"/><rect x="1100.0" y="536.0" width="84.0" height="32.0" rx="3" fill="#D9D1F0" opacity="0.55"/><rect x="1188.0" y="536.0" width="84.0" height="32.0" rx="3" fill="#D9D1F0" opacity="0.55"/><rect x="1276.0" y="536.0" width="84.0" height="32.0" rx="3" fill="#D9D1F0" opacity="0.55"/><rect x="1364.0" y="536.0" width="84.0" height="32.0" rx="3" fill="#D9D1F0" opacity="0.55"/><rect x="1452.0" y="536.0" width="84.0" height="32.0" rx="3" fill="#D9D1F0" opacity="0.55"/><rect x="1540.0" y="536.0" width="84.0" height="32.0" rx="3" fill="#D9D1F0" opacity="0.55"/><rect x="0.0" y="574.0" width="84.0" height="32.0" rx="3" fill="#D9D1F0" opacity="0.55"/><rect x="88.0" y="574.0" width="84.0" height="32.0" rx="3" fill="#D9D1F0" opacity="0.55"/><rect x="176.0" y="574.0" width="84.0" height="32.0" rx="3" fill="#D9D1F0" opacity="0.55"/><rect x="264.0" y="574.0" width="84.0" height="32.0" rx="3" fill="#D9D1F0" opacity="0.55"/><rect x="352.0" y="574.0" width="84.0" height="32.0" rx="3" fill="#D9D1F0" opacity="0.55"/><rect x="440.0" y="574.0" width="84.0" height="32.0" rx="3" fill="#D9D1F0" opacity="0.55"/><rect x="528.0" y="574.0" width="84.0" height="32.0" rx="3" fill="#D9D1F0" opacity="0.55"/><rect x="616.0" y="574.0" width="84.0" height="32.0" rx="3" fill="#D9D1F0" opacity="0.55"/><rect x="704.0" y="574.0" width="84.0" height="32.0" rx="3" fill="#D9D1F0" opacity="0.55"/><rect x="792.0" y="574.0" width="84.0" height="32.0" rx="3" fill="#D9D1F0" opacity="0.55"/><rect x="880.0" y="574.0" width="84.0" height="32.0" rx="3" fill="#D9D1F0" opacity="0.55"/><rect x="968.0" y="574.0" width="84.0" height="32.0" rx="3" fill="#D9D1F0" opacity="0.55"/><rect x="1056.0" y="574.0" width="84.0" height="32.0" rx="3" fill="#D9D1F0" opacity="0.55"/><rect x="1144.0" y="574.0" width="84.0" height="32.0" rx="3" fill="#D9D1F0" opacity="0.55"/><rect x="1232.0" y="574.0" width="84.0" height="32.0" rx="3" fill="#D9D1F0" opacity="0.55"/><rect x="1320.0" y="574.0" width="84.0" height="32.0" rx="3" fill="#D9D1F0" opacity="0.55"/><rect x="1408.0" y="574.0" width="84.0" height="32.0" rx="3" fill="#D9D1F0" opacity="0.55"/><rect x="1496.0" y="574.0" width="84.0" height="32.0" rx="3" fill="#D9D1F0" opacity="0.55"/><rect x="1584.0" y="574.0" width="84.0" height="32.0" rx="3" fill="#D9D1F0" opacity="0.55"/><rect x="140.0" y="72.0" width="220.0" height="14.0" rx="7" fill="#FFFFFF"/><rect x="146.0" y="76.0" width="208.0" height="6.0" rx="3" fill="#FFFDF2"/><ellipse cx="250.0" cy="170.0" rx="260.0" ry="140.0" fill="url(#r4)"/><rect x="590.0" y="72.0" width="220.0" height="14.0" rx="7" fill="#FFFFFF"/><rect x="596.0" y="76.0" width="208.0" height="6.0" rx="3" fill="#FFFDF2"/><ellipse cx="700.0" cy="170.0" rx="260.0" ry="140.0" fill="url(#r5)"/><rect x="1040.0" y="72.0" width="220.0" height="14.0" rx="7" fill="#FFFFFF"/><rect x="1046.0" y="76.0" width="208.0" height="6.0" rx="3" fill="#FFFDF2"/><ellipse cx="1150.0" cy="170.0" rx="260.0" ry="140.0" fill="url(#r6)"/><rect x="0.0" y="520.0" width="1600.0" height="80.0" rx="0" fill="url(#l7)"/><rect x="0.0" y="514.0" width="1600.0" height="8.0" rx="0" fill="#3CCFAE"/><rect x="742.0" y="200.0" width="380.0" height="400.0" rx="6" fill="#8A82AA"/><rect x="760.0" y="216.0" width="344.0" height="384.0" rx="0" fill="url(#l8)"/><g transform="translate(820,280) scale(0.7)" opacity="0.95"><circle cx="0.0" cy="0.0" r="30.0" fill="#FFFFFF"/><circle cx="34.0" cy="-14.0" r="40.0" fill="#FFFFFF"/><circle cx="76.0" cy="0.0" r="32.0" fill="#FFFFFF"/><rect x="-30.0" y="0.0" width="138.0" height="30.0" rx="15" fill="#FFFFFF"/></g><rect x="760.0" y="470.0" width="344.0" height="130.0" rx="0" fill="#C9C3DA"/><rect x="790.0" y="420.0" width="200.0" height="120.0" rx="10" fill="#FFFFFF"/><rect x="790.0" y="420.0" width="200.0" height="30.0" rx="10" fill="#6D5BD0"/><rect x="790.0" y="440.0" width="200.0" height="10.0" rx="0" fill="#6D5BD0"/><circle cx="830.0" cy="548.0" r="18.0" fill="#2B2350"/><circle cx="950.0" cy="548.0" r="18.0" fill="#2B2350"/><rect x="816.0" y="470.0" width="120.0" height="40.0" rx="6" fill="#ECE8FA"/><rect x="760.0" y="216.0" width="344.0" height="12.0" rx="2" fill="#C9C3DE"/><rect x="760.0" y="230.0" width="344.0" height="12.0" rx="2" fill="#B9B2D3"/><rect x="760.0" y="244.0" width="344.0" height="12.0" rx="2" fill="#C9C3DE"/><rect x="760.0" y="258.0" width="344.0" height="12.0" rx="2" fill="#B9B2D3"/><rect x="760.0" y="272.0" width="344.0" height="12.0" rx="2" fill="#C9C3DE"/><rect x="760.0" y="286.0" width="344.0" height="12.0" rx="2" fill="#B9B2D3"/><rect x="760.0" y="300.0" width="344.0" height="12.0" rx="2" fill="#C9C3DE"/><rect x="760.0" y="314.0" width="344.0" height="12.0" rx="2" fill="#B9B2D3"/><rect x="760.0" y="328.0" width="344.0" height="12.0" rx="2" fill="#C9C3DE"/><rect x="756.0" y="326.0" width="352.0" height="14.0" rx="3" fill="#8A82AA"/><rect x="910.0" y="330.0" width="44.0" height="8.0" rx="3" fill="#FFD84A"/><path d="M760 470 L1104 470 L1280 900 L600 900 Z" fill="url(#l9)" style="mix-blend-mode:screen"/><rect x="0.0" y="600.0" width="1600.0" height="300.0" rx="0" fill="url(#l10)"/><path d="M0 607.2 H1600" fill="none" stroke="#FFFFFF" stroke-width="1.2" stroke-linecap="round" stroke-linejoin="round"/><path d="M0 623.3 H1600" fill="none" stroke="#FFFFFF" stroke-width="1.2" stroke-linecap="round" stroke-linejoin="round"/><path d="M0 646.3 H1600" fill="none" stroke="#FFFFFF" stroke-width="1.2" stroke-linecap="round" stroke-linejoin="round"/><path d="M0 675.6 H1600" fill="none" stroke="#FFFFFF" stroke-width="1.2" stroke-linecap="round" stroke-linejoin="round"/><path d="M0 710.4 H1600" fill="none" stroke="#FFFFFF" stroke-width="1.2" stroke-linecap="round" stroke-linejoin="round"/><path d="M0 750.6 H1600" fill="none" stroke="#FFFFFF" stroke-width="1.2" stroke-linecap="round" stroke-linejoin="round"/><path d="M0 795.7 H1600" fill="none" stroke="#FFFFFF" stroke-width="1.2" stroke-linecap="round" stroke-linejoin="round"/><path d="M0 845.6 H1600" fill="none" stroke="#FFFFFF" stroke-width="1.2" stroke-linecap="round" stroke-linejoin="round"/><path d="M-232.3 600 L-1040.0 900" fill="none" stroke="#FFFFFF" stroke-width="1.2" stroke-linecap="round" stroke-linejoin="round"/><path d="M-140.0 600 L-890.0 900" fill="none" stroke="#FFFFFF" stroke-width="1.2" stroke-linecap="round" stroke-linejoin="round"/><path d="M-47.7 600 L-740.0 900" fill="none" stroke="#FFFFFF" stroke-width="1.2" stroke-linecap="round" stroke-linejoin="round"/><path d="M44.6 600 L-590.0 900" fill="none" stroke="#FFFFFF" stroke-width="1.2" stroke-linecap="round" stroke-linejoin="round"/><path d="M136.9 600 L-440.0 900" fill="none" stroke="#FFFFFF" stroke-width="1.2" stroke-linecap="round" stroke-linejoin="round"/><path d="M229.2 600 L-290.0 900" fill="none" stroke="#FFFFFF" stroke-width="1.2" stroke-linecap="round" stroke-linejoin="round"/><path d="M321.5 600 L-140.0 900" fill="none" stroke="#FFFFFF" stroke-width="1.2" stroke-linecap="round" stroke-linejoin="round"/><path d="M413.8 600 L10.0 900" fill="none" stroke="#FFFFFF" stroke-width="1.2" stroke-linecap="round" stroke-linejoin="round"/><path d="M506.2 600 L160.0 900" fill="none" stroke="#FFFFFF" stroke-width="1.2" stroke-linecap="round" stroke-linejoin="round"/><path d="M598.5 600 L310.0 900" fill="none" stroke="#FFFFFF" stroke-width="1.2" stroke-linecap="round" stroke-linejoin="round"/><path d="M690.8 600 L460.0 900" fill="none" stroke="#FFFFFF" stroke-width="1.2" stroke-linecap="round" stroke-linejoin="round"/><path d="M783.1 600 L610.0 900" fill="none" stroke="#FFFFFF" stroke-width="1.2" stroke-linecap="round" stroke-linejoin="round"/><path d="M875.4 600 L760.0 900" fill="none" stroke="#FFFFFF" stroke-width="1.2" stroke-linecap="round" stroke-linejoin="round"/><path d="M967.7 600 L910.0 900" fill="none" stroke="#FFFFFF" stroke-width="1.2" stroke-linecap="round" stroke-linejoin="round"/><path d="M1060.0 600 L1060.0 900" fill="none" stroke="#FFFFFF" stroke-width="1.2" stroke-linecap="round" stroke-linejoin="round"/><path d="M1152.3 600 L1210.0 900" fill="none" stroke="#FFFFFF" stroke-width="1.2" stroke-linecap="round" stroke-linejoin="round"/><path d="M1244.6 600 L1360.0 900" fill="none" stroke="#FFFFFF" stroke-width="1.2" stroke-linecap="round" stroke-linejoin="round"/><path d="M1336.9 600 L1510.0 900" fill="none" stroke="#FFFFFF" stroke-width="1.2" stroke-linecap="round" stroke-linejoin="round"/><path d="M1429.2 600 L1660.0 900" fill="none" stroke="#FFFFFF" stroke-width="1.2" stroke-linecap="round" stroke-linejoin="round"/><path d="M1521.5 600 L1810.0 900" fill="none" stroke="#FFFFFF" stroke-width="1.2" stroke-linecap="round" stroke-linejoin="round"/><path d="M1613.8 600 L1960.0 900" fill="none" stroke="#FFFFFF" stroke-width="1.2" stroke-linecap="round" stroke-linejoin="round"/><path d="M1706.2 600 L2110.0 900" fill="none" stroke="#FFFFFF" stroke-width="1.2" stroke-linecap="round" stroke-linejoin="round"/><path d="M1798.5 600 L2260.0 900" fill="none" stroke="#FFFFFF" stroke-width="1.2" stroke-linecap="round" stroke-linejoin="round"/><path d="M1890.8 600 L2410.0 900" fill="none" stroke="#FFFFFF" stroke-width="1.2" stroke-linecap="round" stroke-linejoin="round"/><path d="M1983.1 600 L2560.0 900" fill="none" stroke="#FFFFFF" stroke-width="1.2" stroke-linecap="round" stroke-linejoin="round"/><path d="M2075.4 600 L2710.0 900" fill="none" stroke="#FFFFFF" stroke-width="1.2" stroke-linecap="round" stroke-linejoin="round"/><path d="M2167.7 600 L2860.0 900" fill="none" stroke="#FFFFFF" stroke-width="1.2" stroke-linecap="round" stroke-linejoin="round"/><path d="M2260.0 600 L3010.0 900" fill="none" stroke="#FFFFFF" stroke-width="1.2" stroke-linecap="round" stroke-linejoin="round"/><path d="M2352.3 600 L3160.0 900" fill="none" stroke="#FFFFFF" stroke-width="1.2" stroke-linecap="round" stroke-linejoin="round"/><rect x="0.0" y="600.0" width="1600.0" height="120.0" rx="0" fill="url(#l11)"/><rect x="0.0" y="600.0" width="1600.0" height="26.0" rx="0" fill="url(#l12)"/><path d="M0 760 L1600 760" fill="none" stroke="#FFD84A" stroke-width="5" stroke-linecap="round" stroke-linejoin="round" opacity="0.75"/><path d="M0 850 L1600 850" fill="none" stroke="#FFD84A" stroke-width="5" stroke-linecap="round" stroke-linejoin="round" opacity="0.75"/><ellipse cx="1340.0" cy="674.0" rx="120.0" ry="16.8" fill="url(#r13)"/><rect x="1250.0" y="210.0" width="12.0" height="460.0" rx="0" fill="#7D74A6"/><rect x="1418.0" y="210.0" width="12.0" height="460.0" rx="0" fill="#7D74A6"/><rect x="1250.0" y="310.0" width="180.0" height="12.0" rx="0" fill="#F29A4A"/><rect x="1250.0" y="322.0" width="180.0" height="5.0" rx="0" fill="#0A1020" opacity="0.08"/><rect x="1266.0" y="244.0" width="70.0" height="66.0" rx="3" fill="#C99A6B"/><rect x="1316.4" y="244.0" width="19.6" height="66.0" rx="0" fill="#A87A4C" opacity="0.35"/><rect x="1294.0" y="244.0" width="14.0" height="66.0" rx="0" fill="#EAD3AE" opacity="0.85"/><rect x="1274.0" y="273.7" width="21.0" height="14.5" rx="2" fill="#FFFFFF" opacity="0.9"/><rect x="1266.0" y="244.0" width="70.0" height="4.0" rx="2" fill="#FFFFFF" opacity="0.25"/><rect x="1346.0" y="244.0" width="74.0" height="66.0" rx="3" fill="#C99A6B"/><rect x="1399.3" y="244.0" width="20.7" height="66.0" rx="0" fill="#A87A4C" opacity="0.35"/><rect x="1376.0" y="244.0" width="14.0" height="66.0" rx="0" fill="#EAD3AE" opacity="0.85"/><rect x="1354.0" y="273.7" width="22.2" height="14.5" rx="2" fill="#FFFFFF" opacity="0.9"/><rect x="1346.0" y="244.0" width="74.0" height="4.0" rx="2" fill="#FFFFFF" opacity="0.25"/><rect x="1250.0" y="420.0" width="180.0" height="12.0" rx="0" fill="#F29A4A"/><rect x="1250.0" y="432.0" width="180.0" height="5.0" rx="0" fill="#0A1020" opacity="0.08"/><rect x="1266.0" y="362.0" width="70.0" height="58.0" rx="3" fill="#C99A6B"/><rect x="1316.4" y="362.0" width="19.6" height="58.0" rx="0" fill="#A87A4C" opacity="0.35"/><rect x="1294.0" y="362.0" width="14.0" height="58.0" rx="0" fill="#EAD3AE" opacity="0.85"/><rect x="1274.0" y="388.1" width="21.0" height="12.8" rx="2" fill="#FFFFFF" opacity="0.9"/><rect x="1266.0" y="362.0" width="70.0" height="4.0" rx="2" fill="#FFFFFF" opacity="0.25"/><rect x="1346.0" y="354.0" width="74.0" height="66.0" rx="3" fill="#C99A6B"/><rect x="1399.3" y="354.0" width="20.7" height="66.0" rx="0" fill="#A87A4C" opacity="0.35"/><rect x="1376.0" y="354.0" width="14.0" height="66.0" rx="0" fill="#EAD3AE" opacity="0.85"/><rect x="1354.0" y="383.7" width="22.2" height="14.5" rx="2" fill="#FFFFFF" opacity="0.9"/><rect x="1346.0" y="354.0" width="74.0" height="4.0" rx="2" fill="#FFFFFF" opacity="0.25"/><rect x="1250.0" y="530.0" width="180.0" height="12.0" rx="0" fill="#F29A4A"/><rect x="1250.0" y="542.0" width="180.0" height="5.0" rx="0" fill="#0A1020" opacity="0.08"/><rect x="1266.0" y="456.0" width="70.0" height="74.0" rx="3" fill="#C99A6B"/><rect x="1316.4" y="456.0" width="19.6" height="74.0" rx="0" fill="#A87A4C" opacity="0.35"/><rect x="1294.0" y="456.0" width="14.0" height="74.0" rx="0" fill="#EAD3AE" opacity="0.85"/><rect x="1274.0" y="489.3" width="21.0" height="16.3" rx="2" fill="#FFFFFF" opacity="0.9"/><rect x="1266.0" y="456.0" width="70.0" height="4.0" rx="2" fill="#FFFFFF" opacity="0.25"/><rect x="1346.0" y="464.0" width="74.0" height="66.0" rx="3" fill="#C99A6B"/><rect x="1399.3" y="464.0" width="20.7" height="66.0" rx="0" fill="#A87A4C" opacity="0.35"/><rect x="1376.0" y="464.0" width="14.0" height="66.0" rx="0" fill="#EAD3AE" opacity="0.85"/><rect x="1354.0" y="493.7" width="22.2" height="14.5" rx="2" fill="#FFFFFF" opacity="0.9"/><rect x="1346.0" y="464.0" width="74.0" height="4.0" rx="2" fill="#FFFFFF" opacity="0.25"/><rect x="1250.0" y="660.0" width="180.0" height="12.0" rx="0" fill="#F29A4A"/><rect x="1250.0" y="672.0" width="180.0" height="5.0" rx="0" fill="#0A1020" opacity="0.08"/><ellipse cx="1534.5" cy="674.0" rx="126.0" ry="17.6" fill="url(#r14)"/><rect x="1440.0" y="210.0" width="12.0" height="460.0" rx="0" fill="#7D74A6"/><rect x="1616.4" y="210.0" width="12.0" height="460.0" rx="0" fill="#7D74A6"/><rect x="1440.0" y="310.0" width="189.0" height="12.0" rx="0" fill="#F29A4A"/><rect x="1440.0" y="322.0" width="189.0" height="5.0" rx="0" fill="#0A1020" opacity="0.08"/><rect x="1456.0" y="244.0" width="70.0" height="66.0" rx="3" fill="#C99A6B"/><rect x="1506.4" y="244.0" width="19.6" height="66.0" rx="0" fill="#A87A4C" opacity="0.35"/><rect x="1484.0" y="244.0" width="14.0" height="66.0" rx="0" fill="#EAD3AE" opacity="0.85"/><rect x="1464.0" y="273.7" width="21.0" height="14.5" rx="2" fill="#FFFFFF" opacity="0.9"/><rect x="1456.0" y="244.0" width="70.0" height="4.0" rx="2" fill="#FFFFFF" opacity="0.25"/><rect x="1536.0" y="244.0" width="74.0" height="66.0" rx="3" fill="#C99A6B"/><rect x="1589.3" y="244.0" width="20.7" height="66.0" rx="0" fill="#A87A4C" opacity="0.35"/><rect x="1566.0" y="244.0" width="14.0" height="66.0" rx="0" fill="#EAD3AE" opacity="0.85"/><rect x="1544.0" y="273.7" width="22.2" height="14.5" rx="2" fill="#FFFFFF" opacity="0.9"/><rect x="1536.0" y="244.0" width="74.0" height="4.0" rx="2" fill="#FFFFFF" opacity="0.25"/><rect x="1440.0" y="420.0" width="189.0" height="12.0" rx="0" fill="#F29A4A"/><rect x="1440.0" y="432.0" width="189.0" height="5.0" rx="0" fill="#0A1020" opacity="0.08"/><rect x="1456.0" y="362.0" width="70.0" height="58.0" rx="3" fill="#C99A6B"/><rect x="1506.4" y="362.0" width="19.6" height="58.0" rx="0" fill="#A87A4C" opacity="0.35"/><rect x="1484.0" y="362.0" width="14.0" height="58.0" rx="0" fill="#EAD3AE" opacity="0.85"/><rect x="1464.0" y="388.1" width="21.0" height="12.8" rx="2" fill="#FFFFFF" opacity="0.9"/><rect x="1456.0" y="362.0" width="70.0" height="4.0" rx="2" fill="#FFFFFF" opacity="0.25"/><rect x="1536.0" y="354.0" width="74.0" height="66.0" rx="3" fill="#C99A6B"/><rect x="1589.3" y="354.0" width="20.7" height="66.0" rx="0" fill="#A87A4C" opacity="0.35"/><rect x="1566.0" y="354.0" width="14.0" height="66.0" rx="0" fill="#EAD3AE" opacity="0.85"/><rect x="1544.0" y="383.7" width="22.2" height="14.5" rx="2" fill="#FFFFFF" opacity="0.9"/><rect x="1536.0" y="354.0" width="74.0" height="4.0" rx="2" fill="#FFFFFF" opacity="0.25"/><rect x="1440.0" y="530.0" width="189.0" height="12.0" rx="0" fill="#F29A4A"/><rect x="1440.0" y="542.0" width="189.0" height="5.0" rx="0" fill="#0A1020" opacity="0.08"/><rect x="1456.0" y="456.0" width="70.0" height="74.0" rx="3" fill="#C99A6B"/><rect x="1506.4" y="456.0" width="19.6" height="74.0" rx="0" fill="#A87A4C" opacity="0.35"/><rect x="1484.0" y="456.0" width="14.0" height="74.0" rx="0" fill="#EAD3AE" opacity="0.85"/><rect x="1464.0" y="489.3" width="21.0" height="16.3" rx="2" fill="#FFFFFF" opacity="0.9"/><rect x="1456.0" y="456.0" width="70.0" height="4.0" rx="2" fill="#FFFFFF" opacity="0.25"/><rect x="1536.0" y="464.0" width="74.0" height="66.0" rx="3" fill="#C99A6B"/><rect x="1589.3" y="464.0" width="20.7" height="66.0" rx="0" fill="#A87A4C" opacity="0.35"/><rect x="1566.0" y="464.0" width="14.0" height="66.0" rx="0" fill="#EAD3AE" opacity="0.85"/><rect x="1544.0" y="493.7" width="22.2" height="14.5" rx="2" fill="#FFFFFF" opacity="0.9"/><rect x="1536.0" y="464.0" width="74.0" height="4.0" rx="2" fill="#FFFFFF" opacity="0.25"/><rect x="1440.0" y="660.0" width="189.0" height="12.0" rx="0" fill="#F29A4A"/><rect x="1440.0" y="672.0" width="189.0" height="5.0" rx="0" fill="#0A1020" opacity="0.08"/><path d="M1290 0 V120 M1430 0 V120" fill="none" stroke="#9C95B8" stroke-width="2" stroke-linecap="round" stroke-linejoin="round"/><rect x="1270.0" y="120.0" width="180.0" height="44.0" rx="8" fill="#2B2350"/><rect x="1270.0" y="156.0" width="180.0" height="8.0" rx="4" fill="#3CCFAE"/><rect x="1290.0" y="136.0" width="90.0" height="12.0" rx="6" fill="#FFFFFF" opacity="0.9"/><path d="M560 640 L1020 640 L1040 664 L540 664 Z" fill="url(#l15)"/><rect x="540.0" y="664.0" width="500.0" height="12.0" rx="4" fill="#3A3460"/><circle cx="560.0" cy="682.0" r="7.0" fill="#2B2350"/><circle cx="600.0" cy="682.0" r="7.0" fill="#2B2350"/><circle cx="640.0" cy="682.0" r="7.0" fill="#2B2350"/><circle cx="680.0" cy="682.0" r="7.0" fill="#2B2350"/><circle cx="720.0" cy="682.0" r="7.0" fill="#2B2350"/><circle cx="760.0" cy="682.0" r="7.0" fill="#2B2350"/><circle cx="800.0" cy="682.0" r="7.0" fill="#2B2350"/><circle cx="840.0" cy="682.0" r="7.0" fill="#2B2350"/><circle cx="880.0" cy="682.0" r="7.0" fill="#2B2350"/><circle cx="920.0" cy="682.0" r="7.0" fill="#2B2350"/><circle cx="960.0" cy="682.0" r="7.0" fill="#2B2350"/><circle cx="1000.0" cy="682.0" r="7.0" fill="#2B2350"/><rect x="552.0" y="676.0" width="476.0" height="26.0" rx="6" fill="#463E6A" opacity="0.5"/><rect x="590.0" y="578.0" width="84.0" height="62.0" rx="3" fill="#C99A6B"/><rect x="650.5" y="578.0" width="23.5" height="62.0" rx="0" fill="#A87A4C" opacity="0.35"/><rect x="625.0" y="578.0" width="14.0" height="62.0" rx="0" fill="#EAD3AE" opacity="0.85"/><rect x="598.0" y="605.9" width="25.2" height="13.6" rx="2" fill="#FFFFFF" opacity="0.9"/><rect x="590.0" y="578.0" width="84.0" height="4.0" rx="2" fill="#FFFFFF" opacity="0.25"/><rect x="700.0" y="590.0" width="70.0" height="50.0" rx="3" fill="#D4A879"/><rect x="750.4" y="590.0" width="19.6" height="50.0" rx="0" fill="#A87A4C" opacity="0.35"/><rect x="728.0" y="590.0" width="14.0" height="50.0" rx="0" fill="#EAD3AE" opacity="0.85"/><rect x="708.0" y="612.5" width="21.0" height="11.0" rx="2" fill="#FFFFFF" opacity="0.9"/><rect x="700.0" y="590.0" width="70.0" height="4.0" rx="2" fill="#FFFFFF" opacity="0.25"/><rect x="800.0" y="566.0" width="96.0" height="74.0" rx="3" fill="#C99A6B"/><rect x="869.1" y="566.0" width="26.9" height="74.0" rx="0" fill="#A87A4C" opacity="0.35"/><rect x="841.0" y="566.0" width="14.0" height="74.0" rx="0" fill="#EAD3AE" opacity="0.85"/><rect x="808.0" y="599.3" width="28.8" height="16.3" rx="2" fill="#FFFFFF" opacity="0.9"/><rect x="800.0" y="566.0" width="96.0" height="4.0" rx="2" fill="#FFFFFF" opacity="0.25"/><rect x="920.0" y="594.0" width="64.0" height="46.0" rx="3" fill="#D4A879"/><rect x="966.1" y="594.0" width="17.9" height="46.0" rx="0" fill="#A87A4C" opacity="0.35"/><rect x="945.0" y="594.0" width="14.0" height="46.0" rx="0" fill="#EAD3AE" opacity="0.85"/><rect x="928.0" y="614.7" width="19.2" height="10.1" rx="2" fill="#FFFFFF" opacity="0.9"/><rect x="920.0" y="594.0" width="64.0" height="4.0" rx="2" fill="#FFFFFF" opacity="0.25"/><ellipse cx="1180.0" cy="794.0" rx="300.0" ry="70.0" fill="url(#r16)"/><ellipse cx="1180.0" cy="430.0" rx="340.0" ry="300.0" fill="url(#r17)"/><g transform="translate(1470,905)" filter="url(#b18)"><rect x="0.0" y="-120.0" width="150.0" height="120.0" rx="3" fill="#C99A6B"/><rect x="108.0" y="-120.0" width="42.0" height="120.0" rx="0" fill="#A87A4C" opacity="0.35"/><rect x="68.0" y="-120.0" width="14.0" height="120.0" rx="0" fill="#EAD3AE" opacity="0.85"/><rect x="8.0" y="-66.0" width="45.0" height="26.4" rx="2" fill="#FFFFFF" opacity="0.9"/><rect x="0.0" y="-120.0" width="150.0" height="4.0" rx="2" fill="#FFFFFF" opacity="0.25"/><rect x="20.0" y="-216.0" width="120.0" height="96.0" rx="3" fill="#D4A879"/><rect x="106.4" y="-216.0" width="33.6" height="96.0" rx="0" fill="#A87A4C" opacity="0.35"/><rect x="73.0" y="-216.0" width="14.0" height="96.0" rx="0" fill="#EAD3AE" opacity="0.85"/><rect x="28.0" y="-172.8" width="36.0" height="21.1" rx="2" fill="#FFFFFF" opacity="0.9"/><rect x="20.0" y="-216.0" width="120.0" height="4.0" rx="2" fill="#FFFFFF" opacity="0.25"/></g><g transform="translate(80,905) scale(1.5)" filter="url(#b22)"><ellipse cx="0.0" cy="4.0" rx="70.0" ry="11.0" fill="url(#r21)"/><g transform="rotate(66 0 -60)"><ellipse cx="0" cy="-129" rx="20" ry="58" fill="url(#l19)"/><path d="M0 -62 V-181" stroke="#FFFFFF" stroke-opacity=".28" stroke-width="2.4" fill="none"/></g><g transform="rotate(-66 0 -60)"><ellipse cx="0" cy="-124" rx="23" ry="54" fill="url(#l19)"/><path d="M0 -62 V-172" stroke="#FFFFFF" stroke-opacity=".28" stroke-width="2.4" fill="none"/></g><g transform="rotate(40 0 -60)"><ellipse cx="0" cy="-143" rx="20" ry="70" fill="url(#l19)"/><path d="M0 -62 V-205" stroke="#FFFFFF" stroke-opacity=".28" stroke-width="2.4" fill="none"/></g><g transform="rotate(-40 0 -60)"><ellipse cx="0" cy="-139" rx="23" ry="67" fill="url(#l19)"/><path d="M0 -62 V-198" stroke="#FFFFFF" stroke-opacity=".28" stroke-width="2.4" fill="none"/></g><g transform="rotate(16 0 -60)"><ellipse cx="0" cy="-153" rx="20" ry="78" fill="url(#l19)"/><path d="M0 -62 V-222" stroke="#FFFFFF" stroke-opacity=".28" stroke-width="2.4" fill="none"/></g><g transform="rotate(-16 0 -60)"><ellipse cx="0" cy="-151" rx="23" ry="76" fill="url(#l19)"/><path d="M0 -62 V-218" stroke="#FFFFFF" stroke-opacity=".28" stroke-width="2.4" fill="none"/></g><g transform="rotate(0 0 -60)"><ellipse cx="0" cy="-134" rx="20" ry="62" fill="url(#l19)"/><path d="M0 -62 V-190" stroke="#FFFFFF" stroke-opacity=".28" stroke-width="2.4" fill="none"/></g><path d="M-44 -66 H44 L34 0 H-34 Z" fill="url(#l20)"/><rect x="-50.0" y="-76.0" width="100.0" height="16.0" rx="7" fill="#6D5BD0"/><rect x="-50.0" y="-76.0" width="100.0" height="5.0" rx="3" fill="#FFFFFF" opacity="0.3"/><path d="M-44 -60 L-34 0 H-20 L-28 -60 Z" fill="#FFFFFF" opacity="0.14"/></g><rect x="0.0" y="0.0" width="1600.0" height="900.0" rx="0" fill="url(#r23)"/></svg>