<svg xmlns="http://www.w3.org/2000/svg" viewBox="0 0 1600 900" preserveAspectRatio="xMidYMax slice"><rect x="0.0" y="0.0" width="1600.0" height="900.0" rx="0" fill="#FBF3E6"/><defs><linearGradient id="wall" x1="0" y1="0" x2="0" y2="1"><stop offset="0" stop-color="#FBF3E6"/><stop offset="1" stop-color="#F5E7D3"/></linearGradient></defs><rect x="0.0" y="0.0" width="1600.0" height="640.0" rx="0" fill="url(#wall)"/><rect x="30.0" y="0.0" width="3.0" height="640.0" rx="0" fill="#81B29A" opacity="0.2"/><rect x="76.0" y="0.0" width="3.0" height="640.0" rx="0" fill="#81B29A" opacity="0.2"/><rect x="122.0" y="0.0" width="3.0" height="640.0" rx="0" fill="#81B29A" opacity="0.2"/><rect x="168.0" y="0.0" width="3.0" height="640.0" rx="0" fill="#81B29A" opacity="0.2"/><rect x="214.0" y="0.0" width="3.0" height="640.0" rx="0" fill="#81B29A" opacity="0.2"/><rect x="260.0" y="0.0" width="3.0" height="640.0" rx="0" fill="#81B29A" opacity="0.2"/><rect x="306.0" y="0.0" width="3.0" height="640.0" rx="0" fill="#81B29A" opacity="0.2"/><rect x="352.0" y="0.0" width="3.0" height="640.0" rx="0" fill="#81B29A" opacity="0.2"/><rect x="398.0" y="0.0" width="3.0" height="640.0" rx="0" fill="#81B29A" opacity="0.2"/><rect x="444.0" y="0.0" width="3.0" height="640.0" rx="0" fill="#81B29A" opacity="0.2"/><rect x="490.0" y="0.0" width="3.0" height="640.0" rx="0" fill="#81B29A" opacity="0.2"/><rect x="536.0" y="0.0" width="3.0" height="640.0" rx="0" fill="#81B29A" opacity="0.2"/><rect x="582.0" y="0.0" width="3.0" height="640.0" rx="0" fill="#81B29A" opacity="0.2"/><rect x="628.0" y="0.0" width="3.0" height="640.0" rx="0" fill="#81B29A" opacity="0.2"/><rect x="674.0" y="0.0" width="3.0" height="640.0" rx="0" fill="#81B29A" opacity="0.2"/><rect x="720.0" y="0.0" width="3.0" height="640.0" rx="0" fill="#81B29A" opacity="0.2"/><rect x="766.0" y="0.0" width="3.0" height="640.0" rx="0" fill="#81B29A" opacity="0.2"/><rect x="812.0" y="0.0" width="3.0" height="640.0" rx="0" fill="#81B29A" opacity="0.2"/><rect x="858.0" y="0.0" width="3.0" height="640.0" rx="0" fill="#81B29A" opacity="0.2"/><rect x="904.0" y="0.0" width="3.0" height="640.0" rx="0" fill="#81B29A" opacity="0.2"/><rect x="950.0" y="0.0" width="3.0" height="640.0" rx="0" fill="#81B29A" opacity="0.2"/><rect x="996.0" y="0.0" width="3.0" height="640.0" rx="0" fill="#81B29A" opacity="0.2"/><rect x="1042.0" y="0.0" width="3.0" height="640.0" rx="0" fill="#81B29A" opacity="0.2"/><rect x="1088.0" y="0.0" width="3.0" height="640.0" rx="0" fill="#81B29A" opacity="0.2"/><rect x="1134.0" y="0.0" width="3.0" height="640.0" rx="0" fill="#81B29A" opacity="0.2"/><rect x="1180.0" y="0.0" width="3.0" height="640.0" rx="0" fill="#81B29A" opacity="0.2"/><rect x="1226.0" y="0.0" width="3.0" height="640.0" rx="0" fill="#81B29A" opacity="0.2"/><rect x="1272.0" y="0.0" width="3.0" height="640.0" rx="0" fill="#81B29A" opacity="0.2"/><rect x="1318.0" y="0.0" width="3.0" height="640.0" rx="0" fill="#81B29A" opacity="0.2"/><rect x="1364.0" y="0.0" width="3.0" height="640.0" rx="0" fill="#81B29A" opacity="0.2"/><rect x="1410.0" y="0.0" width="3.0" height="640.0" rx="0" fill="#81B29A" opacity="0.2"/><rect x="1456.0" y="0.0" width="3.0" height="640.0" rx="0" fill="#81B29A" opacity="0.2"/><rect x="1502.0" y="0.0" width="3.0" height="640.0" rx="0" fill="#81B29A" opacity="0.2"/><rect x="1548.0" y="0.0" width="3.0" height="640.0" rx="0" fill="#81B29A" opacity="0.2"/><rect x="1594.0" y="0.0" width="3.0" height="640.0" rx="0" fill="#81B29A" opacity="0.2"/><rect x="0.0" y="540.0" width="1600.0" height="100.0" rx="0" fill="#E9B39A"/><rect x="0.0" y="532.0" width="1600.0" height="10.0" rx="0" fill="#FFFFFF"/><path d="M0 60 L0 60.0 L20 62.6 L40 65.1 L60 67.5 L80 69.7 L100 71.8 L120 73.6 L140 75.1 L160 76.4 L180 77.3 L200 77.8 L220 78.0 L240 77.8 L260 77.3 L280 76.4 L300 75.1 L320 73.6 L340 71.8 L360 69.7 L380 67.5 L400 65.1 L420 62.5 L440 60.0 L460 57.4 L480 54.9 L500 52.5 L520 50.2 L540 48.2 L560 46.4 L580 44.8 L600 43.6 L620 42.7 L640 42.2 L660 42.0 L680 42.2 L700 42.7 L720 43.6 L740 44.9 L760 46.4 L780 48.2 L800 50.3 L820 52.6 L840 55.0 L860 57.5 L880 60.0 L900 62.6 L920 65.1 L940 67.5 L960 69.8 L980 71.8 L1000 73.6 L1020 75.2 L1040 76.4 L1060 77.3 L1080 77.8 L1100 78.0 L1120 77.8 L1140 77.3 L1160 76.3 L1180 75.1 L1200 73.6 L1220 71.7 L1240 69.7 L1260 67.4 L1280 65.0 L1300 62.5 L1320 59.9 L1340 57.4 L1360 54.9 L1380 52.5 L1400 50.2 L1420 48.2 L1440 46.3 L1460 44.8 L1480 43.6 L1500 42.7 L1520 42.2 L1540 42.0 L1560 42.2 L1580 42.8 L1600 43.7 L1620 44.9" fill="none" stroke="#B9A58A" stroke-width="2" stroke-linecap="round" stroke-linejoin="round"/><path d="M0 60.0 l40 0 l-20 34 Z" fill="#D9785A"/><path d="M46 65.80844176445304 l40 0 l-20 34 Z" fill="#81B29A"/><path d="M92 70.99543017360354 l40 0 l-20 34 Z" fill="#E9C46A"/><path d="M138 75.0060020408514 l40 0 l-20 34 Z" fill="#7FA8C9"/><path d="M184 77.41106064031806 l40 0 l-20 34 Z" fill="#D9785A"/><path d="M230 77.95328536917252 l40 0 l-20 34 Z" fill="#81B29A"/><path d="M276 76.5746628409095 l40 0 l-20 34 Z" fill="#E9C46A"/><path d="M322 73.42269381918096 l40 0 l-20 34 Z" fill="#7FA8C9"/><path d="M368 68.83461190359884 l40 0 l-20 34 Z" fill="#D9785A"/><path d="M414 63.301302432515136 l40 0 l-20 34 Z" fill="#81B29A"/><path d="M460 57.41478197012727 l40 0 l-20 34 Z" fill="#E9C46A"/><path d="M506 51.80485762146567 l40 0 l-20 34 Z" fill="#7FA8C9"/><path d="M552 47.07174308425644 l40 0 l-20 34 Z" fill="#D9785A"/><path d="M598 43.72184094106157 l40 0 l-20 34 Z" fill="#81B29A"/><path d="M644 42.11356193459764 l40 0 l-20 34 Z" fill="#E9C46A"/><path d="M690 42.41897809818454 l40 0 l-20 34 Z" fill="#7FA8C9"/><path d="M736 44.60541252684128 l40 0 l-20 34 Z" fill="#D9785A"/><path d="M782 48.438935525317525 l40 0 l-20 34 Z" fill="#81B29A"/><path d="M828 53.509393075265 l40 0 l-20 34 Z" fill="#E9C46A"/><path d="M874 59.274289790637454 l40 0 l-20 34 Z" fill="#7FA8C9"/><path d="M920 65.11683126218973 l40 0 l-20 34 Z" fill="#D9785A"/><path d="M966 70.4119157589876 l40 0 l-20 34 Z" fill="#81B29A"/><path d="M1012 74.59301474195127 l40 0 l-20 34 Z" fill="#E9C46A"/><path d="M1058 77.21278654920569 l40 0 l-20 34 Z" fill="#7FA8C9"/><path d="M1104 77.99093810977465 l40 0 l-20 34 Z" fill="#D9785A"/><path d="M1150 76.84421389354176 l40 0 l-20 34 Z" fill="#81B29A"/><path d="M1196 73.89530353753601 l40 0 l-20 34 Z" fill="#E9C46A"/><path d="M1242 69.45971510907442 l40 0 l-20 34 Z" fill="#7FA8C9"/><path d="M1288 64.01201845380446 l40 0 l-20 34 Z" fill="#D9785A"/><path d="M1334 58.135070300325246 l40 0 l-20 34 Z" fill="#81B29A"/><path d="M1380 52.457653598871424 l40 0 l-20 34 Z" fill="#E9C46A"/><path d="M1426 47.58720314893806 l40 0 l-20 34 Z" fill="#7FA8C9"/><path d="M1472 44.04481529558433 l40 0 l-20 34 Z" fill="#D9785A"/><path d="M1518 42.209495098432626 l40 0 l-20 34 Z" fill="#81B29A"/><path d="M1564 42.27760604718077 l40 0 l-20 34 Z" fill="#E9C46A"/><defs><radialGradient id="gl5"><stop offset="0" stop-color="#FFF2CF" stop-opacity="0.42"/><stop offset="1" stop-color="#FFF2CF" stop-opacity="0"/></radialGradient></defs><ellipse cx="700.0" cy="260.0" rx="170.0" ry="150.0" fill="url(#gl5)"/><path d="M700 0 V116" fill="none" stroke="#8A7F6E" stroke-width="2.4" stroke-linecap="round" stroke-linejoin="round"/><path d="M666 150 Q670 112 700 112 Q730 112 734 150 Z" fill="#81B29A"/><ellipse cx="700.0" cy="152.0" rx="12.0" ry="6.0" fill="#FFF2CF"/><defs><radialGradient id="gl6"><stop offset="0" stop-color="#FFF2CF" stop-opacity="0.42"/><stop offset="1" stop-color="#FFF2CF" stop-opacity="0"/></radialGradient></defs><ellipse cx="1180.0" cy="260.0" rx="170.0" ry="150.0" fill="url(#gl6)"/><path d="M1180 0 V116" fill="none" stroke="#8A7F6E" stroke-width="2.4" stroke-linecap="round" stroke-linejoin="round"/><path d="M1146 150 Q1150 112 1180 112 Q1210 112 1214 150 Z" fill="#D9785A"/><ellipse cx="1180.0" cy="152.0" rx="12.0" ry="6.0" fill="#FFF2CF"/><ellipse cx="1390.0" cy="642.0" rx="170.0" ry="20.4" fill="#1A2236" opacity="0.16"/><rect x="1240.0" y="250.0" width="300.0" height="390.0" rx="10" fill="#B98E62"/><rect x="1250.0" y="260.0" width="280.0" height="370.0" rx="6" fill="#F4E4CC"/><rect x="1250.0" y="360.0" width="280.0" height="10.0" rx="0" fill="#B98E62"/><rect x="1264.0" y="316.0" width="36.0" height="44.0" rx="8" fill="#D9785A"/><rect x="1294.0" y="326.0" width="10.0" height="18.0" rx="5" fill="none" stroke="#D9785A" stroke-width="4"/><rect x="1316.0" y="316.0" width="36.0" height="44.0" rx="8" fill="#81B29A"/><rect x="1346.0" y="326.0" width="10.0" height="18.0" rx="5" fill="none" stroke="#81B29A" stroke-width="4"/><rect x="1368.0" y="316.0" width="36.0" height="44.0" rx="8" fill="#E9C46A"/><rect x="1398.0" y="326.0" width="10.0" height="18.0" rx="5" fill="none" stroke="#E9C46A" stroke-width="4"/><rect x="1420.0" y="316.0" width="36.0" height="44.0" rx="8" fill="#D9785A"/><rect x="1450.0" y="326.0" width="10.0" height="18.0" rx="5" fill="none" stroke="#D9785A" stroke-width="4"/><rect x="1472.0" y="316.0" width="36.0" height="44.0" rx="8" fill="#81B29A"/><rect x="1502.0" y="326.0" width="10.0" height="18.0" rx="5" fill="none" stroke="#81B29A" stroke-width="4"/><rect x="1250.0" y="460.0" width="280.0" height="10.0" rx="0" fill="#B98E62"/><rect x="1264.0" y="404.0" width="30.0" height="56.0" rx="8" fill="#FFFFFF"/><rect x="1270.0" y="416.0" width="18.0" height="10.0" rx="3" fill="#D9785A" opacity="0.7"/><rect x="1316.0" y="404.0" width="30.0" height="56.0" rx="8" fill="#F7D9C9"/><rect x="1322.0" y="416.0" width="18.0" height="10.0" rx="3" fill="#D9785A" opacity="0.7"/><rect x="1368.0" y="404.0" width="30.0" height="56.0" rx="8" fill="#DDEBE2"/><rect x="1374.0" y="416.0" width="18.0" height="10.0" rx="3" fill="#D9785A" opacity="0.7"/><rect x="1420.0" y="404.0" width="30.0" height="56.0" rx="8" fill="#FFFFFF"/><rect x="1426.0" y="416.0" width="18.0" height="10.0" rx="3" fill="#D9785A" opacity="0.7"/><rect x="1472.0" y="404.0" width="30.0" height="56.0" rx="8" fill="#F7D9C9"/><rect x="1478.0" y="416.0" width="18.0" height="10.0" rx="3" fill="#D9785A" opacity="0.7"/><rect x="1250.0" y="560.0" width="280.0" height="10.0" rx="0" fill="#B98E62"/><rect x="1260.0" y="534.0" width="46.0" height="13.0" rx="4" fill="#D9785A"/><rect x="1262.0" y="547.0" width="44.0" height="13.0" rx="4" fill="#81B29A"/><rect x="1312.0" y="534.0" width="46.0" height="13.0" rx="4" fill="#F7D9C9"/><rect x="1314.0" y="547.0" width="44.0" height="13.0" rx="4" fill="#D9785A"/><rect x="1364.0" y="534.0" width="46.0" height="13.0" rx="4" fill="#81B29A"/><rect x="1366.0" y="547.0" width="44.0" height="13.0" rx="4" fill="#E9C46A"/><rect x="1416.0" y="534.0" width="46.0" height="13.0" rx="4" fill="#D9785A"/><rect x="1418.0" y="547.0" width="44.0" height="13.0" rx="4" fill="#81B29A"/><rect x="1468.0" y="534.0" width="46.0" height="13.0" rx="4" fill="#F7D9C9"/><rect x="1470.0" y="547.0" width="44.0" height="13.0" rx="4" fill="#D9785A"/><rect x="860.0" y="200.0" width="300.0" height="330.0" rx="150" fill="#FFFFFF"/><rect x="876.0" y="216.0" width="268.0" height="300.0" rx="136" fill="#CFE7F2"/><g transform="translate(930,300) scale(0.6)" opacity="0.95"><circle cx="0.0" cy="0.0" r="30.0" fill="#FFFFFF"/><circle cx="34.0" cy="-12.0" r="38.0" fill="#FFFFFF"/><circle cx="72.0" cy="0.0" r="30.0" fill="#FFFFFF"/><rect x="-30.0" y="0.0" width="132.0" height="28.0" rx="14" fill="#FFFFFF"/></g><rect x="876.0" y="420.0" width="268.0" height="96.0" rx="0" fill="#E3D9CB"/><rect x="990.0" y="360.0" width="6.0" height="70.0" rx="0" fill="#8A6A4A"/><ellipse cx="993.0" cy="350.0" rx="44.0" ry="38.0" fill="#6FAF86"/><defs><linearGradient id="fl" x1="0" y1="0" x2="0" y2="1"><stop offset="0" stop-color="#E8D2B5"/><stop offset="1" stop-color="#D9BE9A"/></linearGradient></defs><rect x="0.0" y="640.0" width="1600.0" height="260.0" rx="0" fill="url(#fl)"/><path d="M0 658.8 H1600" fill="none" stroke="#CDAF88" stroke-width="1.6" stroke-linecap="round" stroke-linejoin="round"/><path d="M-137 658.8 v33.4" fill="none" stroke="#CDAF88" stroke-width="1.2" stroke-linecap="round" stroke-linejoin="round"/><path d="M123 658.8 v33.4" fill="none" stroke="#CDAF88" stroke-width="1.2" stroke-linecap="round" stroke-linejoin="round"/><path d="M383 658.8 v33.4" fill="none" stroke="#CDAF88" stroke-width="1.2" stroke-linecap="round" stroke-linejoin="round"/><path d="M643 658.8 v33.4" fill="none" stroke="#CDAF88" stroke-width="1.2" stroke-linecap="round" stroke-linejoin="round"/><path d="M903 658.8 v33.4" fill="none" stroke="#CDAF88" stroke-width="1.2" stroke-linecap="round" stroke-linejoin="round"/><path d="M1163 658.8 v33.4" fill="none" stroke="#CDAF88" stroke-width="1.2" stroke-linecap="round" stroke-linejoin="round"/><path d="M1423 658.8 v33.4" fill="none" stroke="#CDAF88" stroke-width="1.2" stroke-linecap="round" stroke-linejoin="round"/><path d="M0 687.9 H1600" fill="none" stroke="#CDAF88" stroke-width="1.6" stroke-linecap="round" stroke-linejoin="round"/><path d="M-14 687.9 v33.4" fill="none" stroke="#CDAF88" stroke-width="1.2" stroke-linecap="round" stroke-linejoin="round"/><path d="M246 687.9 v33.4" fill="none" stroke="#CDAF88" stroke-width="1.2" stroke-linecap="round" stroke-linejoin="round"/><path d="M506 687.9 v33.4" fill="none" stroke="#CDAF88" stroke-width="1.2" stroke-linecap="round" stroke-linejoin="round"/><path d="M766 687.9 v33.4" fill="none" stroke="#CDAF88" stroke-width="1.2" stroke-linecap="round" stroke-linejoin="round"/><path d="M1026 687.9 v33.4" fill="none" stroke="#CDAF88" stroke-width="1.2" stroke-linecap="round" stroke-linejoin="round"/><path d="M1286 687.9 v33.4" fill="none" stroke="#CDAF88" stroke-width="1.2" stroke-linecap="round" stroke-linejoin="round"/><path d="M1546 687.9 v33.4" fill="none" stroke="#CDAF88" stroke-width="1.2" stroke-linecap="round" stroke-linejoin="round"/><path d="M0 722.8 H1600" fill="none" stroke="#CDAF88" stroke-width="1.6" stroke-linecap="round" stroke-linejoin="round"/><path d="M-151 722.8 v33.4" fill="none" stroke="#CDAF88" stroke-width="1.2" stroke-linecap="round" stroke-linejoin="round"/><path d="M109 722.8 v33.4" fill="none" stroke="#CDAF88" stroke-width="1.2" stroke-linecap="round" stroke-linejoin="round"/><path d="M369 722.8 v33.4" fill="none" stroke="#CDAF88" stroke-width="1.2" stroke-linecap="round" stroke-linejoin="round"/><path d="M629 722.8 v33.4" fill="none" stroke="#CDAF88" stroke-width="1.2" stroke-linecap="round" stroke-linejoin="round"/><path d="M889 722.8 v33.4" fill="none" stroke="#CDAF88" stroke-width="1.2" stroke-linecap="round" stroke-linejoin="round"/><path d="M1149 722.8 v33.4" fill="none" stroke="#CDAF88" stroke-width="1.2" stroke-linecap="round" stroke-linejoin="round"/><path d="M1409 722.8 v33.4" fill="none" stroke="#CDAF88" stroke-width="1.2" stroke-linecap="round" stroke-linejoin="round"/><path d="M0 762.1 H1600" fill="none" stroke="#CDAF88" stroke-width="1.6" stroke-linecap="round" stroke-linejoin="round"/><path d="M-28 762.1 v33.4" fill="none" stroke="#CDAF88" stroke-width="1.2" stroke-linecap="round" stroke-linejoin="round"/><path d="M232 762.1 v33.4" fill="none" stroke="#CDAF88" stroke-width="1.2" stroke-linecap="round" stroke-linejoin="round"/><path d="M492 762.1 v33.4" fill="none" stroke="#CDAF88" stroke-width="1.2" stroke-linecap="round" stroke-linejoin="round"/><path d="M752 762.1 v33.4" fill="none" stroke="#CDAF88" stroke-width="1.2" stroke-linecap="round" stroke-linejoin="round"/><path d="M1012 762.1 v33.4" fill="none" stroke="#CDAF88" stroke-width="1.2" stroke-linecap="round" stroke-linejoin="round"/><path d="M1272 762.1 v33.4" fill="none" stroke="#CDAF88" stroke-width="1.2" stroke-linecap="round" stroke-linejoin="round"/><path d="M1532 762.1 v33.4" fill="none" stroke="#CDAF88" stroke-width="1.2" stroke-linecap="round" stroke-linejoin="round"/><path d="M0 805.1 H1600" fill="none" stroke="#CDAF88" stroke-width="1.6" stroke-linecap="round" stroke-linejoin="round"/><path d="M-165 805.1 v33.4" fill="none" stroke="#CDAF88" stroke-width="1.2" stroke-linecap="round" stroke-linejoin="round"/><path d="M95 805.1 v33.4" fill="none" stroke="#CDAF88" stroke-width="1.2" stroke-linecap="round" stroke-linejoin="round"/><path d="M355 805.1 v33.4" fill="none" stroke="#CDAF88" stroke-width="1.2" stroke-linecap="round" stroke-linejoin="round"/><path d="M615 805.1 v33.4" fill="none" stroke="#CDAF88" stroke-width="1.2" stroke-linecap="round" stroke-linejoin="round"/><path d="M875 805.1 v33.4" fill="none" stroke="#CDAF88" stroke-width="1.2" stroke-linecap="round" stroke-linejoin="round"/><path d="M1135 805.1 v33.4" fill="none" stroke="#CDAF88" stroke-width="1.2" stroke-linecap="round" stroke-linejoin="round"/><path d="M1395 805.1 v33.4" fill="none" stroke="#CDAF88" stroke-width="1.2" stroke-linecap="round" stroke-linejoin="round"/><path d="M0 851.2 H1600" fill="none" stroke="#CDAF88" stroke-width="1.6" stroke-linecap="round" stroke-linejoin="round"/><path d="M-42 851.2 v33.4" fill="none" stroke="#CDAF88" stroke-width="1.2" stroke-linecap="round" stroke-linejoin="round"/><path d="M218 851.2 v33.4" fill="none" stroke="#CDAF88" stroke-width="1.2" stroke-linecap="round" stroke-linejoin="round"/><path d="M478 851.2 v33.4" fill="none" stroke="#CDAF88" stroke-width="1.2" stroke-linecap="round" stroke-linejoin="round"/><path d="M738 851.2 v33.4" fill="none" stroke="#CDAF88" stroke-width="1.2" stroke-linecap="round" stroke-linejoin="round"/><path d="M998 851.2 v33.4" fill="none" stroke="#CDAF88" stroke-width="1.2" stroke-linecap="round" stroke-linejoin="round"/><path d="M1258 851.2 v33.4" fill="none" stroke="#CDAF88" stroke-width="1.2" stroke-linecap="round" stroke-linejoin="round"/><path d="M1518 851.2 v33.4" fill="none" stroke="#CDAF88" stroke-width="1.2" stroke-linecap="round" stroke-linejoin="round"/><rect x="0.0" y="640.0" width="1600.0" height="10.0" rx="0" fill="#000000" opacity="0.06"/><g transform="translate(1100,790) scale(1.2)"><ellipse cx="0.0" cy="4.0" rx="60.0" ry="7.2" fill="#1A2236" opacity="0.16"/><g transform="translate(0,-6)"><ellipse cx="0" cy="-104" rx="14" ry="46" fill="#5FA77B" transform="rotate(-62 0 -58)"/><ellipse cx="0" cy="-104" rx="14" ry="46" fill="#4C9068" transform="rotate(62 0 -58)"/><ellipse cx="0" cy="-104" rx="14" ry="46" fill="#5FA77B" transform="rotate(-40 0 -58)"/><ellipse cx="0" cy="-104" rx="14" ry="46" fill="#4C9068" transform="rotate(40 0 -58)"/><ellipse cx="0" cy="-104" rx="14" ry="46" fill="#5FA77B" transform="rotate(-18 0 -58)"/><ellipse cx="0" cy="-104" rx="14" ry="46" fill="#4C9068" transform="rotate(18 0 -58)"/><ellipse cx="0" cy="-104" rx="14" ry="46" fill="#5FA77B" transform="rotate(0 0 -58)"/></g><path d="M-34 -58 H34 L26 0 H-26 Z" fill="#D9785A"/><rect x="-38.0" y="-66.0" width="76.0" height="14.0" rx="6" fill="#D9785A"/><rect x="-38.0" y="-66.0" width="76.0" height="5.0" rx="3" fill="#FFFFFF" opacity="0.25"/></g><g transform="translate(80,810) scale(1.15)"><ellipse cx="0.0" cy="4.0" rx="60.0" ry="7.2" fill="#1A2236" opacity="0.16"/><g transform="translate(0,-6)"><ellipse cx="0" cy="-104" rx="14" ry="46" fill="#5E8F77" transform="rotate(-62 0 -58)"/><ellipse cx="0" cy="-104" rx="14" ry="46" fill="#4E7D66" transform="rotate(62 0 -58)"/><ellipse cx="0" cy="-104" rx="14" ry="46" fill="#5E8F77" transform="rotate(-40 0 -58)"/><ellipse cx="0" cy="-104" rx="14" ry="46" fill="#4E7D66" transform="rotate(40 0 -58)"/><ellipse cx="0" cy="-104" rx="14" ry="46" fill="#5E8F77" transform="rotate(-18 0 -58)"/><ellipse cx="0" cy="-104" rx="14" ry="46" fill="#4E7D66" transform="rotate(18 0 -58)"/><ellipse cx="0" cy="-104" rx="14" ry="46" fill="#5E8F77" transform="rotate(0 0 -58)"/></g><path d="M-34 -58 H34 L26 0 H-26 Z" fill="#81B29A"/><rect x="-38.0" y="-66.0" width="76.0" height="14.0" rx="6" fill="#81B29A"/><rect x="-38.0" y="-66.0" width="76.0" height="5.0" rx="3" fill="#FFFFFF" opacity="0.25"/></g><ellipse cx="240.0" cy="800.0" rx="70.0" ry="8.4" fill="#1A2236" opacity="0.16"/><rect x="180.0" y="730.0" width="120.0" height="70.0" rx="12" fill="#D9785A"/><path d="M196 730 Q240 670 284 730" fill="none" stroke="#D9785A" stroke-width="6" stroke-linecap="round" stroke-linejoin="round"/></svg>