<svg xmlns="http://www.w3.org/2000/svg" viewBox="0 0 1600 900" preserveAspectRatio="xMidYMax slice"><defs><linearGradient id="l1" x1="0" y1="0" x2="0" y2="1"><stop offset="0" stop-color="#FCF5EA" stop-opacity="1"/><stop offset="1" stop-color="#F3E5D0" stop-opacity="1"/></linearGradient><radialGradient id="r2" cx="0.5" cy="0.5" r="0.5"><stop offset="0" stop-color="#FFE9B8" stop-opacity="0.42"/><stop offset="1" stop-color="#FFE9B8" stop-opacity="0"/></radialGradient><linearGradient id="l3" x1="0" y1="0" x2="0" y2="1"><stop offset="0" stop-color="#9CC5AF" stop-opacity="1"/><stop offset="1" stop-color="#81B29A" stop-opacity="1"/></linearGradient><radialGradient id="r4" cx="0.5" cy="0.5" r="0.5"><stop offset="0" stop-color="#FFE9B8" stop-opacity="0.42"/><stop offset="1" stop-color="#FFE9B8" stop-opacity="0"/></radialGradient><linearGradient id="l5" x1="0" y1="0" x2="0" y2="1"><stop offset="0" stop-color="#E9967A" stop-opacity="1"/><stop offset="1" stop-color="#D9785A" stop-opacity="1"/></linearGradient><linearGradient id="l6" x1="0" y1="0" x2="0" y2="1"><stop offset="0" stop-color="#EAB59D" stop-opacity="1"/><stop offset="1" stop-color="#DFA488" stop-opacity="1"/></linearGradient><linearGradient id="l7" x1="0" y1="0" x2="0" y2="1"><stop offset="0" stop-color="#0A1020" stop-opacity="0.08"/><stop offset="1" stop-color="#0A1020" stop-opacity="0"/></linearGradient><clipPath id="rarch"><path d="M760 480 V345.0 A165.0 165.0 0 0 1 1090 345.0 V480 Z"/></clipPath><linearGradient id="l8" x1="0" y1="0" x2="0" y2="1"><stop offset="0" stop-color="#BFE3F7" stop-opacity="1"/><stop offset="1" stop-color="#F0F8FC" stop-opacity="1"/></linearGradient><linearGradient id="l9" x1="0" y1="0" x2="0" y2="1"><stop offset="0" stop-color="#FFF6DE" stop-opacity="0.45"/><stop offset="1" stop-color="#FFF6DE" stop-opacity="0"/></linearGradient><linearGradient id="l10" x1="0" y1="0" x2="0" y2="1"><stop offset="0" stop-color="#E9D3B6" stop-opacity="1"/><stop offset="1" stop-color="#D6B993" stop-opacity="1"/></linearGradient><linearGradient id="l11" x1="0" y1="0" x2="0" y2="1"><stop offset="0" stop-color="#FFFFFF" stop-opacity="0.25"/><stop offset="1" stop-color="#FFFFFF" stop-opacity="0"/></linearGradient><linearGradient id="l12" x1="0" y1="0" x2="0" y2="1"><stop offset="0" stop-color="#0A1020" stop-opacity="0.16"/><stop offset="1" stop-color="#0A1020" stop-opacity="0"/></linearGradient><radialGradient id="r13" cx="0.5" cy="0.5" r="0.5"><stop offset="0" stop-color="#0A1020" stop-opacity="0.22"/><stop offset="1" stop-color="#0A1020" stop-opacity="0"/></radialGradient><linearGradient id="l14" x1="0" y1="0" x2="1" y2="0"><stop offset="0" stop-color="#C49A6C" stop-opacity="1"/><stop offset="1" stop-color="#A9794C" stop-opacity="1"/></linearGradient><linearGradient id="l15" x1="0" y1="0" x2="0" y2="1"><stop offset="0" stop-color="#F7E8D2" stop-opacity="1"/><stop offset="1" stop-color="#EEDBBF" stop-opacity="1"/></linearGradient><radialGradient id="r16" cx="0.5" cy="0.5" r="0.5"><stop offset="0" stop-color="#0A1020" stop-opacity="0.22"/><stop offset="1" stop-color="#0A1020" stop-opacity="0"/></radialGradient><linearGradient id="l17" x1="0" y1="0" x2="0" y2="1"><stop offset="0" stop-color="#E3C29A" stop-opacity="1"/><stop offset="1" stop-color="#D9B48A" stop-opacity="1"/></linearGradient><radialGradient id="r18" cx="0.5" cy="0.5" r="0.5"><stop offset="0" stop-color="#FFF2D6" stop-opacity="0.6"/><stop offset="0.6" stop-color="#FFF2D6" stop-opacity="0.21"/><stop offset="1" stop-color="#FFF2D6" stop-opacity="0"/></radialGradient><radialGradient id="r19" cx="0.5" cy="0.5" r="0.5"><stop offset="0" stop-color="#FFF2D6" stop-opacity="0.3"/><stop offset="1" stop-color="#FFF2D6" stop-opacity="0"/></radialGradient><linearGradient id="l20" x1="0" y1="0" x2="1" y2="1"><stop offset="0" stop-color="#7FB59A" stop-opacity="1"/><stop offset="1" stop-color="#3F7D60" stop-opacity="1"/></linearGradient><linearGradient id="l21" x1="0" y1="0" x2="1" y2="0"><stop offset="0" stop-color="#D9785A" stop-opacity="1"/><stop offset="1" stop-color="#B95E43" stop-opacity="1"/></linearGradient><radialGradient id="r22" cx="0.5" cy="0.5" r="0.5"><stop offset="0" stop-color="#0A1020" stop-opacity="0.25"/><stop offset="1" stop-color="#0A1020" stop-opacity="0"/></radialGradient><filter id="b23" x="-20%" y="-20%" width="140%" height="140%"><feGaussianBlur stdDeviation="3"/></filter><linearGradient id="l24" x1="0" y1="0" x2="0" y2="1"><stop offset="0" stop-color="#E59478" stop-opacity="1"/><stop offset="1" stop-color="#D9785A" stop-opacity="1"/></linearGradient><filter id="b25" x="-20%" y="-20%" width="140%" height="140%"><feGaussianBlur stdDeviation="2.5"/></filter><filter id="g26" x="0" y="0" width="100%" height="100%"><feTurbulence type="fractalNoise" baseFrequency=".85" numOctaves="2" stitchTiles="stitch"/><feColorMatrix type="matrix" values="0 0 0 0 .5  0 0 0 0 .5  0 0 0 0 .5  0 0 0 .055 0"/></filter><radialGradient id="r27" cx="0.5" cy="0.46" r="0.78"><stop offset="0" stop-color="#000" stop-opacity="0"/><stop offset="0.62" stop-color="#000" stop-opacity="0"/><stop offset="1" stop-color="#0A1020" stop-opacity="0.2"/></radialGradient></defs><rect x="0.0" y="0.0" width="1600.0" height="900.0" rx="0" fill="#FCF5EA"/><rect x="0.0" y="0.0" width="1600.0" height="600.0" rx="0" fill="url(#l1)"/><rect x="24.0" y="0.0" width="3.0" height="600.0" rx="0" fill="#B79A78" opacity="0.1"/><rect x="64.0" y="0.0" width="3.0" height="600.0" rx="0" fill="#B79A78" opacity="0.1"/><rect x="104.0" y="0.0" width="3.0" height="600.0" rx="0" fill="#B79A78" opacity="0.1"/><rect x="144.0" y="0.0" width="3.0" height="600.0" rx="0" fill="#B79A78" opacity="0.1"/><rect x="184.0" y="0.0" width="3.0" height="600.0" rx="0" fill="#B79A78" opacity="0.1"/><rect x="224.0" y="0.0" width="3.0" height="600.0" rx="0" fill="#B79A78" opacity="0.1"/><rect x="264.0" y="0.0" width="3.0" height="600.0" rx="0" fill="#B79A78" opacity="0.1"/><rect x="304.0" y="0.0" width="3.0" height="600.0" rx="0" fill="#B79A78" opacity="0.1"/><rect x="344.0" y="0.0" width="3.0" height="600.0" rx="0" fill="#B79A78" opacity="0.1"/><rect x="384.0" y="0.0" width="3.0" height="600.0" rx="0" fill="#B79A78" opacity="0.1"/><rect x="424.0" y="0.0" width="3.0" height="600.0" rx="0" fill="#B79A78" opacity="0.1"/><rect x="464.0" y="0.0" width="3.0" height="600.0" rx="0" fill="#B79A78" opacity="0.1"/><rect x="504.0" y="0.0" width="3.0" height="600.0" rx="0" fill="#B79A78" opacity="0.1"/><rect x="544.0" y="0.0" width="3.0" height="600.0" rx="0" fill="#B79A78" opacity="0.1"/><rect x="584.0" y="0.0" width="3.0" height="600.0" rx="0" fill="#B79A78" opacity="0.1"/><rect x="624.0" y="0.0" width="3.0" height="600.0" rx="0" fill="#B79A78" opacity="0.1"/><rect x="664.0" y="0.0" width="3.0" height="600.0" rx="0" fill="#B79A78" opacity="0.1"/><rect x="704.0" y="0.0" width="3.0" height="600.0" rx="0" fill="#B79A78" opacity="0.1"/><rect x="744.0" y="0.0" width="3.0" height="600.0" rx="0" fill="#B79A78" opacity="0.1"/><rect x="784.0" y="0.0" width="3.0" height="600.0" rx="0" fill="#B79A78" opacity="0.1"/><rect x="824.0" y="0.0" width="3.0" height="600.0" rx="0" fill="#B79A78" opacity="0.1"/><rect x="864.0" y="0.0" width="3.0" height="600.0" rx="0" fill="#B79A78" opacity="0.1"/><rect x="904.0" y="0.0" width="3.0" height="600.0" rx="0" fill="#B79A78" opacity="0.1"/><rect x="944.0" y="0.0" width="3.0" height="600.0" rx="0" fill="#B79A78" opacity="0.1"/><rect x="984.0" y="0.0" width="3.0" height="600.0" rx="0" fill="#B79A78" opacity="0.1"/><rect x="1024.0" y="0.0" width="3.0" height="600.0" rx="0" fill="#B79A78" opacity="0.1"/><rect x="1064.0" y="0.0" width="3.0" height="600.0" rx="0" fill="#B79A78" opacity="0.1"/><rect x="1104.0" y="0.0" width="3.0" height="600.0" rx="0" fill="#B79A78" opacity="0.1"/><rect x="1144.0" y="0.0" width="3.0" height="600.0" rx="0" fill="#B79A78" opacity="0.1"/><rect x="1184.0" y="0.0" width="3.0" height="600.0" rx="0" fill="#B79A78" opacity="0.1"/><rect x="1224.0" y="0.0" width="3.0" height="600.0" rx="0" fill="#B79A78" opacity="0.1"/><rect x="1264.0" y="0.0" width="3.0" height="600.0" rx="0" fill="#B79A78" opacity="0.1"/><rect x="1304.0" y="0.0" width="3.0" height="600.0" rx="0" fill="#B79A78" opacity="0.1"/><rect x="1344.0" y="0.0" width="3.0" height="600.0" rx="0" fill="#B79A78" opacity="0.1"/><rect x="1384.0" y="0.0" width="3.0" height="600.0" rx="0" fill="#B79A78" opacity="0.1"/><rect x="1424.0" y="0.0" width="3.0" height="600.0" rx="0" fill="#B79A78" opacity="0.1"/><rect x="1464.0" y="0.0" width="3.0" height="600.0" rx="0" fill="#B79A78" opacity="0.1"/><rect x="1504.0" y="0.0" width="3.0" height="600.0" rx="0" fill="#B79A78" opacity="0.1"/><rect x="1544.0" y="0.0" width="3.0" height="600.0" rx="0" fill="#B79A78" opacity="0.1"/><rect x="1584.0" y="0.0" width="3.0" height="600.0" rx="0" fill="#B79A78" opacity="0.1"/><path d="M0 70 L0 70.0 L20 72.7 L40 75.3 L60 77.8 L80 80.2 L100 82.4 L120 84.3 L140 86.1 L160 87.5 L180 88.6 L200 89.4 L220 89.9 L240 90.0 L260 89.7 L280 89.1 L300 88.2 L320 86.9 L340 85.3 L360 83.5 L380 81.4 L400 79.1 L420 76.7 L440 74.1 L460 71.5 L480 68.8 L500 66.2 L520 63.6 L540 61.1 L560 58.8 L580 56.7 L600 54.9 L620 53.3 L640 52.0 L660 51.0 L680 50.3 L700 50.0 L720 50.1 L740 50.5 L760 51.2 L780 52.3 L800 53.7 L820 55.4 L840 57.4 L860 59.5 L880 61.9 L900 64.4 L920 67.0 L940 69.7 L960 72.3 L980 75.0 L1000 77.5 L1020 79.9 L1040 82.1 L1060 84.1 L1080 85.9 L1100 87.3 L1120 88.5 L1140 89.4 L1160 89.9 L1180 90.0 L1200 89.8 L1220 89.2 L1240 88.3 L1260 87.1 L1280 85.6 L1300 83.8 L1320 81.7 L1340 79.4 L1360 77.0 L1380 74.5 L1400 71.8 L1420 69.2 L1440 66.5 L1460 63.9 L1480 61.4 L1500 59.1 L1520 57.0 L1540 55.1 L1560 53.4 L1580 52.1 L1600 51.1 L1620 50.4" fill="none" stroke="#A68B6A" stroke-width="2" stroke-linecap="round" stroke-linejoin="round"/><path d="M0 70.0 l38 0 l-19 34 Z" fill="#D9785A"/><path d="M44 75.8 l38 0 l-19 34 Z" fill="#81B29A"/><path d="M88 81.1 l38 0 l-19 34 Z" fill="#E9C46A"/><path d="M132 85.4 l38 0 l-19 34 Z" fill="#7FA8C9"/><path d="M176 88.4 l38 0 l-19 34 Z" fill="#D9785A"/><path d="M220 89.9 l38 0 l-19 34 Z" fill="#81B29A"/><path d="M264 89.6 l38 0 l-19 34 Z" fill="#E9C46A"/><path d="M308 87.7 l38 0 l-19 34 Z" fill="#7FA8C9"/><path d="M352 84.3 l38 0 l-19 34 Z" fill="#D9785A"/><path d="M396 79.6 l38 0 l-19 34 Z" fill="#81B29A"/><path d="M440 74.1 l38 0 l-19 34 Z" fill="#E9C46A"/><path d="M484 68.3 l38 0 l-19 34 Z" fill="#7FA8C9"/><path d="M528 62.6 l38 0 l-19 34 Z" fill="#D9785A"/><path d="M572 57.6 l38 0 l-19 34 Z" fill="#81B29A"/><path d="M616 53.6 l38 0 l-19 34 Z" fill="#E9C46A"/><path d="M660 51.0 l38 0 l-19 34 Z" fill="#7FA8C9"/><path d="M704 50.0 l38 0 l-19 34 Z" fill="#D9785A"/><path d="M748 50.7 l38 0 l-19 34 Z" fill="#81B29A"/><path d="M792 53.1 l38 0 l-19 34 Z" fill="#E9C46A"/><path d="M836 57.0 l38 0 l-19 34 Z" fill="#7FA8C9"/><path d="M880 61.9 l38 0 l-19 34 Z" fill="#D9785A"/><path d="M924 67.5 l38 0 l-19 34 Z" fill="#81B29A"/><path d="M968 73.4 l38 0 l-19 34 Z" fill="#E9C46A"/><path d="M1012 78.9 l38 0 l-19 34 Z" fill="#7FA8C9"/><path d="M1056 83.7 l38 0 l-19 34 Z" fill="#D9785A"/><path d="M1100 87.3 l38 0 l-19 34 Z" fill="#81B29A"/><path d="M1144 89.5 l38 0 l-19 34 Z" fill="#E9C46A"/><path d="M1188 90.0 l38 0 l-19 34 Z" fill="#7FA8C9"/><path d="M1232 88.7 l38 0 l-19 34 Z" fill="#D9785A"/><path d="M1276 85.9 l38 0 l-19 34 Z" fill="#81B29A"/><path d="M1320 81.7 l38 0 l-19 34 Z" fill="#E9C46A"/><path d="M1364 76.5 l38 0 l-19 34 Z" fill="#7FA8C9"/><path d="M1408 70.8 l38 0 l-19 34 Z" fill="#D9785A"/><path d="M1452 65.0 l38 0 l-19 34 Z" fill="#81B29A"/><path d="M1496 59.6 l38 0 l-19 34 Z" fill="#E9C46A"/><path d="M1540 55.1 l38 0 l-19 34 Z" fill="#7FA8C9"/><path d="M1584 51.9 l38 0 l-19 34 Z" fill="#D9785A"/><ellipse cx="760.0" cy="340.0" rx="210.0" ry="170.0" fill="url(#r2)"/><path d="M760 0 V152" fill="none" stroke="#8A7F6E" stroke-width="2" stroke-linecap="round" stroke-linejoin="round"/><path d="M720 190 Q724 148 760 148 Q796 148 800 190 Z" fill="url(#l3)"/><ellipse cx="760.0" cy="191.0" rx="16.8" ry="7.0" fill="#FFE9B8"/><ellipse cx="760.0" cy="191.0" rx="8.8" ry="4.0" fill="#FFFFFF"/><ellipse cx="1300.0" cy="340.0" rx="210.0" ry="170.0" fill="url(#r4)"/><path d="M1300 0 V152" fill="none" stroke="#8A7F6E" stroke-width="2" stroke-linecap="round" stroke-linejoin="round"/><path d="M1260 190 Q1264 148 1300 148 Q1336 148 1340 190 Z" fill="url(#l5)"/><ellipse cx="1300.0" cy="191.0" rx="16.8" ry="7.0" fill="#FFE9B8"/><ellipse cx="1300.0" cy="191.0" rx="8.8" ry="4.0" fill="#FFFFFF"/><rect x="0.0" y="500.0" width="1600.0" height="100.0" rx="0" fill="url(#l6)"/><rect x="0.0" y="494.0" width="1600.0" height="8.0" rx="0" fill="#FFF8EE"/><rect x="0.0" y="502.0" width="1600.0" height="6.0" rx="0" fill="url(#l7)"/><rect x="30.0" y="526.0" width="110.0" height="50.0" rx="6" fill="#FFFFFF" opacity="0.12"/><rect x="30.0" y="526.0" width="110.0" height="3.0" rx="2" fill="#FFFFFF" opacity="0.3"/><rect x="180.0" y="526.0" width="110.0" height="50.0" rx="6" fill="#FFFFFF" opacity="0.12"/><rect x="180.0" y="526.0" width="110.0" height="3.0" rx="2" fill="#FFFFFF" opacity="0.3"/><rect x="330.0" y="526.0" width="110.0" height="50.0" rx="6" fill="#FFFFFF" opacity="0.12"/><rect x="330.0" y="526.0" width="110.0" height="3.0" rx="2" fill="#FFFFFF" opacity="0.3"/><rect x="480.0" y="526.0" width="110.0" height="50.0" rx="6" fill="#FFFFFF" opacity="0.12"/><rect x="480.0" y="526.0" width="110.0" height="3.0" rx="2" fill="#FFFFFF" opacity="0.3"/><rect x="630.0" y="526.0" width="110.0" height="50.0" rx="6" fill="#FFFFFF" opacity="0.12"/><rect x="630.0" y="526.0" width="110.0" height="3.0" rx="2" fill="#FFFFFF" opacity="0.3"/><rect x="780.0" y="526.0" width="110.0" height="50.0" rx="6" fill="#FFFFFF" opacity="0.12"/><rect x="780.0" y="526.0" width="110.0" height="3.0" rx="2" fill="#FFFFFF" opacity="0.3"/><rect x="930.0" y="526.0" width="110.0" height="50.0" rx="6" fill="#FFFFFF" opacity="0.12"/><rect x="930.0" y="526.0" width="110.0" height="3.0" rx="2" fill="#FFFFFF" opacity="0.3"/><rect x="1080.0" y="526.0" width="110.0" height="50.0" rx="6" fill="#FFFFFF" opacity="0.12"/><rect x="1080.0" y="526.0" width="110.0" height="3.0" rx="2" fill="#FFFFFF" opacity="0.3"/><rect x="1230.0" y="526.0" width="110.0" height="50.0" rx="6" fill="#FFFFFF" opacity="0.12"/><rect x="1230.0" y="526.0" width="110.0" height="3.0" rx="2" fill="#FFFFFF" opacity="0.3"/><rect x="1380.0" y="526.0" width="110.0" height="50.0" rx="6" fill="#FFFFFF" opacity="0.12"/><rect x="1380.0" y="526.0" width="110.0" height="3.0" rx="2" fill="#FFFFFF" opacity="0.3"/><rect x="1530.0" y="526.0" width="110.0" height="50.0" rx="6" fill="#FFFFFF" opacity="0.12"/><rect x="1530.0" y="526.0" width="110.0" height="3.0" rx="2" fill="#FFFFFF" opacity="0.3"/><path d="M744 496 V345.0 A181.0 181.0 0 0 1 1106 345.0 V496 Z" fill="#FFFBF3"/><g clip-path="url(#rarch)"><rect x="760.0" y="180.0" width="330.0" height="300.0" rx="0" fill="url(#l8)"/><g transform="translate(810,270) scale(0.6)" opacity="0.95"><circle cx="0.0" cy="0.0" r="30.0" fill="#FFFFFF"/><circle cx="34.0" cy="-14.0" r="40.0" fill="#FFFFFF"/><circle cx="76.0" cy="0.0" r="32.0" fill="#FFFFFF"/><rect x="-30.0" y="0.0" width="138.0" height="30.0" rx="15" fill="#FFFFFF"/></g><rect x="760.0" y="370.0" width="330.0" height="110.0" rx="0" fill="#E8DCCB"/><rect x="790.0" y="300.0" width="110.0" height="80.0" rx="0" fill="#E7B9A6"/><rect x="940.0" y="280.0" width="130.0" height="100.0" rx="0" fill="#C9DDE8"/><rect x="970.0" y="300.0" width="26.0" height="26.0" rx="3" fill="#FFFFFF" opacity="0.8"/><rect x="1010.0" y="300.0" width="26.0" height="26.0" rx="3" fill="#FFFFFF" opacity="0.8"/><rect x="888.0" y="330.0" width="8.0" height="90.0" rx="0" fill="#8A6A4A"/><circle cx="892.0" cy="320.0" r="42.0" fill="#6FAF86"/><circle cx="870.0" cy="340.0" r="26.0" fill="#5E9E75"/></g><rect x="921.0" y="220.0" width="8.0" height="260.0" rx="0" fill="#FFFBF3"/><rect x="734.0" y="490.0" width="382.0" height="16.0" rx="6" fill="#FFFBF3"/><path d="M800 480 L640 860 L1230 860 L1050 480 Z" fill="url(#l9)" style="mix-blend-mode:screen"/><rect x="0.0" y="600.0" width="1600.0" height="300.0" rx="0" fill="url(#l10)"/><path d="M-72.3 600 L-780.0 900" fill="none" stroke="#C5A47C" stroke-width="1.4" stroke-linecap="round" stroke-linejoin="round"/><path d="M-15.7 600 L-688.0 900" fill="none" stroke="#C5A47C" stroke-width="1.4" stroke-linecap="round" stroke-linejoin="round"/><path d="M40.9 600 L-596.0 900" fill="none" stroke="#C5A47C" stroke-width="1.4" stroke-linecap="round" stroke-linejoin="round"/><path d="M97.5 600 L-504.0 900" fill="none" stroke="#C5A47C" stroke-width="1.4" stroke-linecap="round" stroke-linejoin="round"/><path d="M154.2 600 L-412.0 900" fill="none" stroke="#C5A47C" stroke-width="1.4" stroke-linecap="round" stroke-linejoin="round"/><path d="M210.8 600 L-320.0 900" fill="none" stroke="#C5A47C" stroke-width="1.4" stroke-linecap="round" stroke-linejoin="round"/><path d="M267.4 600 L-228.0 900" fill="none" stroke="#C5A47C" stroke-width="1.4" stroke-linecap="round" stroke-linejoin="round"/><path d="M324.0 600 L-136.0 900" fill="none" stroke="#C5A47C" stroke-width="1.4" stroke-linecap="round" stroke-linejoin="round"/><path d="M380.6 600 L-44.0 900" fill="none" stroke="#C5A47C" stroke-width="1.4" stroke-linecap="round" stroke-linejoin="round"/><path d="M437.2 600 L48.0 900" fill="none" stroke="#C5A47C" stroke-width="1.4" stroke-linecap="round" stroke-linejoin="round"/><path d="M493.8 600 L140.0 900" fill="none" stroke="#C5A47C" stroke-width="1.4" stroke-linecap="round" stroke-linejoin="round"/><path d="M550.5 600 L232.0 900" fill="none" stroke="#C5A47C" stroke-width="1.4" stroke-linecap="round" stroke-linejoin="round"/><path d="M607.1 600 L324.0 900" fill="none" stroke="#C5A47C" stroke-width="1.4" stroke-linecap="round" stroke-linejoin="round"/><path d="M663.7 600 L416.0 900" fill="none" stroke="#C5A47C" stroke-width="1.4" stroke-linecap="round" stroke-linejoin="round"/><path d="M720.3 600 L508.0 900" fill="none" stroke="#C5A47C" stroke-width="1.4" stroke-linecap="round" stroke-linejoin="round"/><path d="M776.9 600 L600.0 900" fill="none" stroke="#C5A47C" stroke-width="1.4" stroke-linecap="round" stroke-linejoin="round"/><path d="M833.5 600 L692.0 900" fill="none" stroke="#C5A47C" stroke-width="1.4" stroke-linecap="round" stroke-linejoin="round"/><path d="M890.2 600 L784.0 900" fill="none" stroke="#C5A47C" stroke-width="1.4" stroke-linecap="round" stroke-linejoin="round"/><path d="M946.8 600 L876.0 900" fill="none" stroke="#C5A47C" stroke-width="1.4" stroke-linecap="round" stroke-linejoin="round"/><path d="M1003.4 600 L968.0 900" fill="none" stroke="#C5A47C" stroke-width="1.4" stroke-linecap="round" stroke-linejoin="round"/><path d="M1060.0 600 L1060.0 900" fill="none" stroke="#C5A47C" stroke-width="1.4" stroke-linecap="round" stroke-linejoin="round"/><path d="M1116.6 600 L1152.0 900" fill="none" stroke="#C5A47C" stroke-width="1.4" stroke-linecap="round" stroke-linejoin="round"/><path d="M1173.2 600 L1244.0 900" fill="none" stroke="#C5A47C" stroke-width="1.4" stroke-linecap="round" stroke-linejoin="round"/><path d="M1229.8 600 L1336.0 900" fill="none" stroke="#C5A47C" stroke-width="1.4" stroke-linecap="round" stroke-linejoin="round"/><path d="M1286.5 600 L1428.0 900" fill="none" stroke="#C5A47C" stroke-width="1.4" stroke-linecap="round" stroke-linejoin="round"/><path d="M1343.1 600 L1520.0 900" fill="none" stroke="#C5A47C" stroke-width="1.4" stroke-linecap="round" stroke-linejoin="round"/><path d="M1399.7 600 L1612.0 900" fill="none" stroke="#C5A47C" stroke-width="1.4" stroke-linecap="round" stroke-linejoin="round"/><path d="M1456.3 600 L1704.0 900" fill="none" stroke="#C5A47C" stroke-width="1.4" stroke-linecap="round" stroke-linejoin="round"/><path d="M1512.9 600 L1796.0 900" fill="none" stroke="#C5A47C" stroke-width="1.4" stroke-linecap="round" stroke-linejoin="round"/><path d="M1569.5 600 L1888.0 900" fill="none" stroke="#C5A47C" stroke-width="1.4" stroke-linecap="round" stroke-linejoin="round"/><path d="M1626.2 600 L1980.0 900" fill="none" stroke="#C5A47C" stroke-width="1.4" stroke-linecap="round" stroke-linejoin="round"/><path d="M1682.8 600 L2072.0 900" fill="none" stroke="#C5A47C" stroke-width="1.4" stroke-linecap="round" stroke-linejoin="round"/><path d="M1739.4 600 L2164.0 900" fill="none" stroke="#C5A47C" stroke-width="1.4" stroke-linecap="round" stroke-linejoin="round"/><path d="M1796.0 600 L2256.0 900" fill="none" stroke="#C5A47C" stroke-width="1.4" stroke-linecap="round" stroke-linejoin="round"/><path d="M1852.6 600 L2348.0 900" fill="none" stroke="#C5A47C" stroke-width="1.4" stroke-linecap="round" stroke-linejoin="round"/><path d="M1909.2 600 L2440.0 900" fill="none" stroke="#C5A47C" stroke-width="1.4" stroke-linecap="round" stroke-linejoin="round"/><path d="M1965.8 600 L2532.0 900" fill="none" stroke="#C5A47C" stroke-width="1.4" stroke-linecap="round" stroke-linejoin="round"/><path d="M2022.5 600 L2624.0 900" fill="none" stroke="#C5A47C" stroke-width="1.4" stroke-linecap="round" stroke-linejoin="round"/><path d="M2079.1 600 L2716.0 900" fill="none" stroke="#C5A47C" stroke-width="1.4" stroke-linecap="round" stroke-linejoin="round"/><path d="M2135.7 600 L2808.0 900" fill="none" stroke="#C5A47C" stroke-width="1.4" stroke-linecap="round" stroke-linejoin="round"/><path d="M2192.3 600 L2900.0 900" fill="none" stroke="#C5A47C" stroke-width="1.4" stroke-linecap="round" stroke-linejoin="round"/><path d="M0 613.3 H1600" fill="none" stroke="#C5A47C" stroke-width="0.8" stroke-linecap="round" stroke-linejoin="round" opacity="0.6"/><path d="M0 640.4 H1600" fill="none" stroke="#C5A47C" stroke-width="0.8" stroke-linecap="round" stroke-linejoin="round" opacity="0.6"/><path d="M0 677.3 H1600" fill="none" stroke="#C5A47C" stroke-width="0.8" stroke-linecap="round" stroke-linejoin="round" opacity="0.6"/><path d="M0 722.5 H1600" fill="none" stroke="#C5A47C" stroke-width="0.8" stroke-linecap="round" stroke-linejoin="round" opacity="0.6"/><path d="M0 775.1 H1600" fill="none" stroke="#C5A47C" stroke-width="0.8" stroke-linecap="round" stroke-linejoin="round" opacity="0.6"/><path d="M0 834.4 H1600" fill="none" stroke="#C5A47C" stroke-width="0.8" stroke-linecap="round" stroke-linejoin="round" opacity="0.6"/><rect x="0.0" y="600.0" width="1600.0" height="120.0" rx="0" fill="url(#l11)"/><rect x="0.0" y="600.0" width="1600.0" height="26.0" rx="0" fill="url(#l12)"/><ellipse cx="1475.0" cy="674.0" rx="170.0" ry="23.8" fill="url(#r13)"/><rect x="1350.0" y="210.0" width="250.0" height="460.0" rx="10" fill="url(#l14)"/><rect x="1362.0" y="222.0" width="226.0" height="436.0" rx="6" fill="url(#l15)"/><rect x="1362.0" y="320.0" width="226.0" height="10.0" rx="0" fill="#B98E62"/><rect x="1362.0" y="330.0" width="226.0" height="6.0" rx="0" fill="#0A1020" opacity="0.06"/><rect x="1376.0" y="274.0" width="38.0" height="46.0" rx="9" fill="#D9785A"/><path d="M1414 284 q14 0 14 12 q0 12 -14 12" fill="none" stroke="#D9785A" stroke-width="5" stroke-linecap="round" stroke-linejoin="round"/><rect x="1430.0" y="274.0" width="38.0" height="46.0" rx="9" fill="#81B29A"/><path d="M1468 284 q14 0 14 12 q0 12 -14 12" fill="none" stroke="#81B29A" stroke-width="5" stroke-linecap="round" stroke-linejoin="round"/><rect x="1484.0" y="274.0" width="38.0" height="46.0" rx="9" fill="#E9C46A"/><path d="M1522 284 q14 0 14 12 q0 12 -14 12" fill="none" stroke="#E9C46A" stroke-width="5" stroke-linecap="round" stroke-linejoin="round"/><rect x="1538.0" y="274.0" width="38.0" height="46.0" rx="9" fill="#7FA8C9"/><path d="M1576 284 q14 0 14 12 q0 12 -14 12" fill="none" stroke="#7FA8C9" stroke-width="5" stroke-linecap="round" stroke-linejoin="round"/><rect x="1362.0" y="420.0" width="226.0" height="10.0" rx="0" fill="#B98E62"/><rect x="1362.0" y="430.0" width="226.0" height="6.0" rx="0" fill="#0A1020" opacity="0.06"/><rect x="1380.0" y="356.0" width="30.0" height="64.0" rx="10" fill="#FFFFFF"/><rect x="1386.0" y="370.0" width="18.0" height="12.0" rx="3" fill="#D9785A" opacity="0.6"/><rect x="1434.0" y="356.0" width="30.0" height="64.0" rx="10" fill="#F7D9C9"/><rect x="1440.0" y="370.0" width="18.0" height="12.0" rx="3" fill="#D9785A" opacity="0.6"/><rect x="1488.0" y="356.0" width="30.0" height="64.0" rx="10" fill="#DDEBE2"/><rect x="1494.0" y="370.0" width="18.0" height="12.0" rx="3" fill="#D9785A" opacity="0.6"/><rect x="1542.0" y="356.0" width="30.0" height="64.0" rx="10" fill="#E9E1F5"/><rect x="1548.0" y="370.0" width="18.0" height="12.0" rx="3" fill="#D9785A" opacity="0.6"/><rect x="1362.0" y="520.0" width="226.0" height="10.0" rx="0" fill="#B98E62"/><rect x="1362.0" y="530.0" width="226.0" height="6.0" rx="0" fill="#0A1020" opacity="0.06"/><rect x="1372.0" y="490.0" width="46.0" height="14.0" rx="4" fill="#D9785A"/><rect x="1374.0" y="504.0" width="44.0" height="16.0" rx="4" fill="#81B29A"/><rect x="1426.0" y="490.0" width="46.0" height="14.0" rx="4" fill="#F7D9C9"/><rect x="1428.0" y="504.0" width="44.0" height="16.0" rx="4" fill="#D9785A"/><rect x="1480.0" y="490.0" width="46.0" height="14.0" rx="4" fill="#81B29A"/><rect x="1482.0" y="504.0" width="44.0" height="16.0" rx="4" fill="#E9C46A"/><rect x="1534.0" y="490.0" width="46.0" height="14.0" rx="4" fill="#E9C46A"/><rect x="1536.0" y="504.0" width="44.0" height="16.0" rx="4" fill="#7FA8C9"/><rect x="1362.0" y="620.0" width="226.0" height="10.0" rx="0" fill="#B98E62"/><rect x="1362.0" y="630.0" width="226.0" height="6.0" rx="0" fill="#0A1020" opacity="0.06"/><circle cx="1395.0" cy="598.0" r="20.0" fill="#E9C46A"/><circle cx="1389.0" cy="592.0" r="6.0" fill="#FFFFFF" opacity="0.35"/><circle cx="1449.0" cy="598.0" r="20.0" fill="#D9785A"/><circle cx="1443.0" cy="592.0" r="6.0" fill="#FFFFFF" opacity="0.35"/><circle cx="1503.0" cy="598.0" r="20.0" fill="#81B29A"/><circle cx="1497.0" cy="592.0" r="6.0" fill="#FFFFFF" opacity="0.35"/><circle cx="1557.0" cy="598.0" r="20.0" fill="#7FA8C9"/><circle cx="1551.0" cy="592.0" r="6.0" fill="#FFFFFF" opacity="0.35"/><rect x="1350.0" y="210.0" width="250.0" height="8.0" rx="4" fill="#FFFFFF" opacity="0.3"/><ellipse cx="800.0" cy="682.0" rx="200.0" ry="28.0" fill="url(#r16)"/><rect x="640.0" y="560.0" width="320.0" height="18.0" rx="8" fill="url(#l17)"/><rect x="660.0" y="578.0" width="14.0" height="100.0" rx="0" fill="#B98E62"/><rect x="926.0" y="578.0" width="14.0" height="100.0" rx="0" fill="#B98E62"/><rect x="670.0" y="545.0" width="110.0" height="14.0" rx="4" fill="#F7D9C9"/><rect x="676.0" y="530.0" width="110.0" height="14.0" rx="4" fill="#D9785A"/><rect x="670.0" y="515.0" width="110.0" height="14.0" rx="4" fill="#FFFFFF"/><rect x="676.0" y="500.0" width="110.0" height="14.0" rx="4" fill="#81B29A"/><rect x="830.0" y="500.0" width="40.0" height="60.0" rx="14" fill="#7FA8C9"/><circle cx="850.0" cy="488.0" r="26.0" fill="#6FAF86"/><circle cx="836.0" cy="478.0" r="14.0" fill="#5E9E75"/><rect x="890.0" y="530.0" width="44.0" height="30.0" rx="6" fill="#FFFFFF"/><rect x="896.0" y="538.0" width="32.0" height="6.0" rx="3" fill="#D9785A"/><ellipse cx="1180.0" cy="794.0" rx="300.0" ry="70.0" fill="url(#r18)"/><ellipse cx="1180.0" cy="430.0" rx="340.0" ry="300.0" fill="url(#r19)"/><g transform="translate(1560,905) scale(1.8)" filter="url(#b23)"><ellipse cx="0.0" cy="4.0" rx="70.0" ry="11.0" fill="url(#r22)"/><g transform="rotate(-66 0 -60)"><ellipse cx="0" cy="-129" rx="20" ry="58" fill="url(#l20)"/><path d="M0 -62 V-181" stroke="#FFFFFF" stroke-opacity=".28" stroke-width="2.4" fill="none"/></g><g transform="rotate(66 0 -60)"><ellipse cx="0" cy="-124" rx="23" ry="54" fill="url(#l20)"/><path d="M0 -62 V-172" stroke="#FFFFFF" stroke-opacity=".28" stroke-width="2.4" fill="none"/></g><g transform="rotate(-40 0 -60)"><ellipse cx="0" cy="-143" rx="20" ry="70" fill="url(#l20)"/><path d="M0 -62 V-205" stroke="#FFFFFF" stroke-opacity=".28" stroke-width="2.4" fill="none"/></g><g transform="rotate(40 0 -60)"><ellipse cx="0" cy="-139" rx="23" ry="67" fill="url(#l20)"/><path d="M0 -62 V-198" stroke="#FFFFFF" stroke-opacity=".28" stroke-width="2.4" fill="none"/></g><g transform="rotate(-16 0 -60)"><ellipse cx="0" cy="-153" rx="20" ry="78" fill="url(#l20)"/><path d="M0 -62 V-222" stroke="#FFFFFF" stroke-opacity=".28" stroke-width="2.4" fill="none"/></g><g transform="rotate(16 0 -60)"><ellipse cx="0" cy="-151" rx="23" ry="76" fill="url(#l20)"/><path d="M0 -62 V-218" stroke="#FFFFFF" stroke-opacity=".28" stroke-width="2.4" fill="none"/></g><g transform="rotate(0 0 -60)"><ellipse cx="0" cy="-134" rx="20" ry="62" fill="url(#l20)"/><path d="M0 -62 V-190" stroke="#FFFFFF" stroke-opacity=".28" stroke-width="2.4" fill="none"/></g><path d="M-44 -66 H44 L34 0 H-34 Z" fill="url(#l21)"/><rect x="-50.0" y="-76.0" width="100.0" height="16.0" rx="7" fill="#D9785A"/><rect x="-50.0" y="-76.0" width="100.0" height="5.0" rx="3" fill="#FFFFFF" opacity="0.3"/><path d="M-44 -60 L-34 0 H-20 L-28 -60 Z" fill="#FFFFFF" opacity="0.14"/></g><g transform="translate(110,905)" filter="url(#b25)"><rect x="-60.0" y="-90.0" width="150.0" height="90.0" rx="14" fill="url(#l24)"/><path d="M-40 -90 Q15 -170 70 -90" fill="none" stroke="#C26A4E" stroke-width="8" stroke-linecap="round" stroke-linejoin="round"/></g><rect x="0.0" y="0.0" width="1600.0" height="900.0" rx="0" fill="url(#r27)"/><rect width="1600" height="900" filter="url(#g26)"/></svg>